<?xml version="1.0" standalone="no"?>
<!DOCTYPE svg PUBLIC "-//W3C//DTD SVG 20010904//EN"
 "http://www.w3.org/TR/2001/REC-SVG-20010904/DTD/svg10.dtd">
<svg version="1.0" xmlns="http://www.w3.org/2000/svg"
 width="1024.000000pt" height="1024.000000pt" viewBox="0 0 1024.000000 1024.000000"
 preserveAspectRatio="xMidYMid meet">
<metadata>
Created by potrace 1.14, written by Peter Selinger 2001-2017
</metadata>
<g transform="translate(0.000000,1024.000000) scale(0.100000,-0.100000)"
fill="#000000" stroke="none">
<path d="M6171 9687 c8 -8 18 -13 22 -10 15 9 286 -66 476 -132 216 -75 409
-160 396 -173 -3 -3 -24 -8 -48 -11 l-42 -6 52 -31 c47 -27 59 -29 108 -24 47
5 56 4 61 -12 3 -10 11 -18 18 -18 7 0 22 -10 33 -22 25 -27 39 -68 24 -68 -6
0 -11 4 -11 10 0 5 -11 9 -25 8 -16 -2 -25 -8 -25 -19 0 -19 24 -42 33 -32 4
3 7 1 7 -5 0 -15 -13 -15 -28 0 -9 9 -12 9 -12 0 0 -7 4 -12 10 -12 5 0 9 -3
8 -7 -1 -5 2 -20 6 -34 7 -24 14 -56 15 -71 1 -5 6 -8 12 -8 6 0 8 9 5 20 -3
11 -9 30 -12 41 -4 14 -2 20 6 17 6 -2 10 -6 8 -9 -2 -3 5 -14 15 -24 19 -18
19 -48 2 -89 -6 -14 -5 -17 3 -12 8 5 12 -1 12 -16 0 -13 13 -39 28 -58 16
-19 34 -51 42 -70 7 -19 25 -53 40 -75 36 -56 62 -115 50 -115 -6 0 -10 7 -10
15 0 8 -4 15 -9 15 -5 0 -8 -6 -7 -14 0 -8 -3 -15 -9 -15 -5 -1 -10 2 -10 7 0
4 -4 13 -9 21 -7 11 -6 12 5 6 8 -5 7 0 -3 11 -10 11 -23 36 -29 55 -15 42
-45 82 -64 85 -8 1 -14 -1 -14 -4 4 -23 -2 -42 -11 -37 -5 3 -10 -1 -10 -9 0
-9 6 -15 12 -13 7 1 14 -8 16 -20 2 -13 8 -23 13 -23 5 0 9 -6 9 -14 0 -7 6
-19 14 -25 8 -7 17 -30 21 -52 4 -21 11 -39 16 -39 5 0 9 -7 9 -15 0 -8 4 -15
8 -15 4 0 14 -17 21 -37 8 -21 18 -41 23 -44 13 -8 18 -112 6 -126 -7 -9 -6
-15 6 -19 9 -3 14 -10 11 -14 -3 -5 0 -14 7 -22 13 -13 16 -22 24 -65 2 -12 9
-35 16 -50 6 -16 10 -32 9 -36 -1 -5 3 -5 9 -2 14 8 39 -23 40 -48 0 -10 5
-15 10 -12 10 6 14 -7 11 -34 -2 -7 2 -10 8 -6 6 3 11 -2 11 -13 0 -11 7 -25
15 -32 13 -10 15 -9 15 11 0 13 8 33 16 44 l16 20 -3 -20 c-1 -11 1 -37 6 -58
6 -32 4 -41 -13 -57 -11 -10 -22 -17 -25 -14 -2 3 -8 -11 -11 -31 -4 -19 -17
-45 -29 -58 -12 -13 -27 -31 -32 -41 -10 -17 -11 -17 -13 3 -4 44 -6 51 -15
51 -5 0 -6 -7 -3 -16 3 -8 2 -12 -3 -9 -5 3 -12 1 -16 -5 -4 -6 -10 -8 -15 -5
-4 3 -13 -2 -20 -11 -11 -12 -15 -12 -22 -2 -8 10 -11 10 -15 1 -3 -8 -14 -2
-30 17 -14 17 -29 28 -34 24 -5 -3 -9 0 -9 5 0 6 -6 11 -13 11 -7 0 -19 6 -26
13 -6 6 -31 12 -54 12 -30 0 -42 4 -42 14 0 8 7 16 15 18 12 4 12 3 2 -5 -11
-8 -11 -10 1 -15 12 -4 15 0 12 15 -3 11 0 30 6 42 9 18 8 19 -3 6 -7 -8 -22
-22 -33 -30 -17 -12 -18 -12 -7 0 10 12 9 18 -10 33 l-23 19 28 -16 c22 -14
27 -14 27 -2 0 8 6 17 13 20 6 3 3 4 -8 1 -11 -2 -24 -1 -30 3 -14 10 -19 46
-6 37 6 -3 11 -13 11 -21 0 -8 5 -14 11 -14 5 0 7 5 3 12 -5 8 -2 9 9 5 10 -4
24 -10 33 -14 13 -5 15 -2 9 15 -4 15 -2 22 7 23 7 0 4 4 -7 9 -20 8 -20 9 1
9 11 1 21 7 21 15 0 8 -8 12 -21 9 -16 -4 -18 -2 -7 5 11 8 10 11 -5 16 -10 3
-1 3 21 0 36 -4 38 -3 22 10 -17 13 -15 14 18 11 19 -2 33 0 30 4 -2 5 -16 9
-31 9 -14 0 -30 4 -36 10 -8 8 -5 9 11 5 12 -3 21 -1 21 6 0 6 -6 11 -12 11
-7 0 -22 8 -33 17 -19 15 -14 15 30 -3 18 -7 18 -6 -3 21 -12 16 -19 31 -14
34 5 3 12 15 16 27 5 15 1 24 -16 32 -18 8 -19 11 -5 11 19 1 21 9 8 30 -5 7
-14 10 -20 7 -16 -10 -14 3 4 20 8 9 15 23 14 32 0 14 -2 13 -9 -3 -7 -17 -9
-17 -9 -2 -1 9 -5 17 -11 17 -5 0 -10 6 -10 13 0 7 -7 22 -15 32 -27 35 -88
140 -88 152 0 7 -2 11 -5 8 -2 -2 -20 8 -40 23 -31 24 -34 24 -24 6 6 -12 9
-24 7 -28 -3 -3 -2 -4 1 -1 8 5 30 -23 73 -94 26 -43 32 -65 33 -110 1 -32 -2
-63 -6 -69 -4 -7 -5 -16 -1 -21 3 -5 1 -12 -5 -16 -6 -4 -8 -11 -5 -16 4 -5 1
-9 -5 -9 -6 0 -8 -4 -5 -10 3 -5 1 -10 -5 -10 -7 0 -10 -6 -8 -12 8 -20 -37
-59 -51 -45 -8 8 -11 3 -12 -18 -1 -28 -1 -29 -8 -6 -4 14 -13 27 -20 29 -12
4 -13 -9 -8 -68 l6 -72 -53 -49 c-29 -26 -67 -75 -84 -107 -36 -68 -64 -181
-50 -206 18 -32 117 -10 132 30 5 13 14 15 41 11 19 -3 35 -2 35 3 0 12 -69
18 -75 5 -2 -5 -4 -1 -2 10 2 15 10 20 32 20 23 0 30 5 30 19 0 13 20 29 63
52 38 19 61 27 58 19 -3 -10 0 -12 12 -8 9 3 14 3 10 -2 -4 -4 -3 -14 3 -22
11 -13 -2 -19 -14 -7 -4 4 -19 8 -35 9 -26 2 -28 0 -27 -29 2 -17 7 -30 14
-28 6 1 10 -1 9 -5 -3 -15 14 -43 22 -38 5 3 11 -4 15 -15 3 -11 11 -20 17
-20 6 0 8 -3 5 -6 -3 -4 -1 -16 5 -28 7 -11 13 -28 14 -36 1 -8 5 -25 8 -38 3
-15 0 -25 -9 -29 -8 -3 -12 -9 -9 -14 4 -8 -17 -14 -39 -10 -4 0 -6 -5 -5 -11
2 -7 -2 -12 -9 -11 -7 2 -10 -6 -8 -17 2 -11 1 -20 -3 -20 -4 0 -8 -30 -9 -66
-1 -36 -8 -73 -15 -82 -10 -12 -10 -14 0 -8 7 4 12 1 12 -8 0 -26 1 -30 13
-45 14 -16 19 -37 18 -73 -1 -18 6 -31 20 -38 14 -8 19 -18 16 -31 -3 -10 -2
-17 3 -14 4 3 10 -4 13 -15 3 -11 1 -20 -5 -20 -5 0 -2 -7 6 -16 9 -8 16 -19
16 -24 0 -5 18 -20 40 -32 22 -13 40 -26 40 -29 0 -44 -237 -67 -385 -38 -69
14 -78 19 -117 73 -30 41 -36 62 -15 50 7 -4 9 -3 4 2 -5 5 -14 9 -20 9 -5 0
-12 6 -15 13 -2 7 2 10 11 6 11 -4 18 8 27 48 7 29 18 66 25 81 27 64 -28 255
-137 477 -44 91 -87 180 -94 198 l-14 32 32 2 c18 0 39 1 45 1 32 -1 -4 17
-79 41 -93 30 -376 167 -453 219 -168 113 -217 148 -250 173 -20 15 -65 46
-100 68 -35 23 -110 74 -167 114 -164 116 -417 238 -638 307 -320 100 -479
140 -595 150 -128 11 -135 13 -135 41 0 38 18 64 44 64 22 0 44 23 71 75 6 11
20 24 33 30 12 5 20 16 17 22 -2 7 2 13 10 13 7 0 17 4 20 10 8 13 -25 1 -45
-16 -8 -7 -17 -12 -20 -12 -15 0 -69 -30 -98 -54 -18 -15 -37 -28 -42 -28 -5
0 -28 -27 -50 -60 -22 -33 -34 -57 -26 -54 8 3 17 12 20 20 3 8 11 14 18 14 9
0 8 -3 -2 -10 -14 -9 -11 -12 17 -14 7 -1 13 -6 13 -11 0 -6 -21 -11 -47 -12
-165 -8 -372 -25 -414 -34 -41 -9 -51 -8 -65 5 -8 9 -12 20 -9 26 3 5 1 10 -4
10 -13 0 -10 22 4 32 6 5 6 8 -2 8 -6 0 -15 15 -19 32 -12 59 -73 135 -92 116
-8 -8 -15 -8 -24 -1 -18 14 -39 5 -88 -40 -35 -33 -39 -41 -28 -55 11 -13 11
-14 0 -8 -11 6 -11 4 -3 -13 6 -12 16 -30 22 -42 8 -15 7 -19 -1 -14 -8 5 -10
-9 -9 -45 2 -28 6 -53 11 -56 5 -3 6 -10 3 -15 -4 -5 -1 -9 5 -9 7 0 9 -7 6
-16 -4 -10 -2 -13 6 -8 8 5 9 2 5 -9 -4 -12 -1 -17 10 -17 13 0 13 -3 3 -15
-13 -16 -7 -30 13 -30 7 -1 11 -6 10 -12 -2 -10 112 -12 146 -2 7 2 16 -2 18
-8 3 -8 -4 -13 -16 -13 -12 0 -24 -6 -27 -13 -6 -16 0 -15 -129 -20 -55 -3
-111 -9 -125 -15 -14 -5 -29 -11 -35 -12 -28 -6 -105 -71 -105 -89 0 -17 -32
-42 -47 -37 -8 3 -12 2 -9 -2 2 -4 0 -14 -5 -22 -8 -13 -10 -13 -19 0 -8 11
-9 9 -5 -10 3 -14 1 -39 -5 -54 -8 -21 -7 -32 1 -42 6 -8 8 -14 3 -14 -4 0 3
-11 16 -25 13 -14 18 -25 12 -25 -6 0 -9 -6 -6 -14 3 -9 -1 -13 -13 -13 -9 1
-18 -5 -18 -13 -1 -8 -6 -14 -13 -12 -7 1 -12 -5 -12 -13 0 -8 -9 -24 -19 -34
-18 -18 -20 -18 -37 -2 -11 9 0 -4 22 -29 23 -25 45 -56 49 -70 l6 -25 -21 25
c-13 16 -18 18 -14 8 3 -10 2 -18 -2 -19 -5 0 -24 -2 -41 -3 -18 -2 -30 0 -28
4 3 5 1 11 -5 15 -5 3 -10 -2 -11 -12 0 -10 -3 -13 -6 -6 -3 9 -10 10 -24 3
-10 -6 -19 -8 -19 -5 0 3 -9 1 -19 -5 -25 -13 -36 2 -21 29 7 15 6 23 -5 34
-22 22 -73 31 -91 16 -8 -7 -25 -13 -38 -13 -13 -1 -31 -8 -40 -15 -9 -7 -16
-9 -16 -3 0 5 -6 10 -12 9 -31 -1 -49 4 -44 11 2 4 -11 6 -30 4 -19 -2 -41 1
-49 8 -8 6 -18 9 -24 6 -5 -3 -11 -2 -13 4 -5 15 -48 21 -48 7 0 -8 -3 -7 -9
2 -5 7 -14 10 -20 7 -6 -4 -15 3 -20 16 -9 21 -10 21 -12 3 -1 -11 -1 -23 0
-27 0 -5 -4 -7 -10 -5 -7 1 -16 -12 -20 -29 -9 -31 -10 -32 -65 -25 -6 0 -25
15 -43 31 -17 17 -37 28 -43 24 -6 -4 -8 -3 -5 3 4 6 -4 20 -17 32 -15 14 -26
18 -30 12 -4 -5 -12 -8 -19 -6 -15 6 -30 -4 -45 -30 -8 -14 -12 -16 -12 -5 0
8 -14 -16 -31 -55 -16 -38 -34 -79 -40 -90 -8 -18 -9 -17 -5 5 5 25 5 25 -20
-5 l-25 -30 22 55 c69 173 91 254 92 347 1 50 -1 89 -4 87 -7 -4 -23 72 -28
132 -1 15 -3 15 -26 0 -36 -24 -42 -20 -14 12 l24 27 -27 -24 c-16 -14 -26
-27 -23 -29 7 -7 -15 -32 -27 -32 -6 0 -5 7 2 15 24 28 4 15 -26 -17 -24 -27
-25 -29 -4 -13 l25 20 -19 -23 c-11 -12 -26 -20 -33 -18 -7 3 -38 -23 -69 -59
-31 -35 -60 -62 -64 -60 -7 5 -157 -143 -152 -151 2 -3 -21 -31 -50 -62 -29
-32 -44 -46 -33 -32 l20 25 -27 -24 c-16 -14 -26 -26 -23 -29 7 -7 -35 -57
-48 -57 -7 0 -12 -5 -12 -10 0 -6 -10 -24 -23 -40 -13 -17 -20 -23 -16 -15 4
9 3 12 -2 7 -5 -5 -9 -12 -9 -15 -1 -14 -26 -52 -33 -49 -4 1 -9 -2 -10 -8
-11 -29 -24 -45 -34 -39 -6 4 -8 3 -5 -2 8 -13 -9 -39 -25 -39 -7 -1 -12 -7
-10 -14 3 -16 -17 -43 -28 -36 -4 3 -7 -3 -6 -13 0 -10 -5 -16 -14 -14 -8 2
-12 0 -8 -3 11 -11 -11 -47 -24 -39 -7 4 -8 3 -4 -4 8 -14 -51 -105 -63 -97
-5 2 -8 -3 -7 -13 0 -9 -4 -16 -10 -15 -7 1 -11 -5 -10 -15 0 -9 -4 -16 -10
-15 -7 1 -11 -5 -10 -15 0 -9 -5 -16 -12 -14 -8 1 -11 -2 -7 -8 7 -11 -19 -53
-27 -44 -3 3 -5 -3 -5 -13 1 -10 -4 -17 -11 -15 -8 1 -11 -2 -7 -8 9 -14 -14
-52 -27 -44 -7 4 -8 3 -4 -4 10 -16 -22 -74 -36 -66 -7 4 -8 3 -4 -4 10 -16
-22 -74 -36 -66 -6 4 -8 3 -5 -3 4 -6 -33 -93 -82 -194 -88 -182 -141 -305
-207 -488 -19 -51 -34 -94 -34 -95 0 -2 10 -2 22 -2 14 1 24 -6 26 -18 2 -10
0 -16 -6 -12 -5 3 -7 -5 -4 -20 3 -18 7 -22 13 -13 4 7 5 17 3 21 -3 4 0 8 6
8 6 0 10 6 9 13 -2 15 23 77 31 77 3 0 7 -17 8 -37 2 -21 5 -46 8 -56 7 -22
-15 -79 -27 -71 -5 3 -9 -4 -9 -15 0 -11 -5 -23 -11 -26 -6 -4 -8 -14 -5 -22
3 -8 1 -11 -4 -8 -9 6 -21 -28 -26 -75 -1 -14 -2 -29 -3 -33 -1 -5 -5 -5 -11
-2 -5 3 -10 -1 -10 -10 0 -10 5 -14 13 -10 6 4 5 1 -3 -7 -8 -7 -15 -17 -16
-23 -3 -35 -18 -75 -24 -65 -4 7 -13 -9 -20 -38 -10 -46 -33 -80 -53 -81 -25
-2 -50 -32 -62 -76 -32 -109 -85 -521 -85 -654 0 -42 4 -60 15 -64 8 -4 24
-25 35 -48 12 -22 17 -38 11 -34 -6 3 -11 1 -11 -4 0 -6 -4 -11 -9 -11 -5 0
-7 8 -4 18 2 10 -5 29 -16 43 l-20 24 -2 -35 c-6 -101 -3 -507 4 -492 4 9 5
-16 2 -56 -4 -53 -2 -71 6 -66 8 5 9 -8 4 -46 -6 -40 -4 -51 5 -45 9 6 10 -2
5 -34 -5 -28 -3 -41 5 -41 7 0 9 -12 4 -35 -4 -23 -2 -35 5 -35 6 0 8 -11 5
-30 -4 -19 -2 -30 5 -30 6 0 8 -11 5 -30 -4 -17 -2 -30 3 -30 6 0 8 -11 5 -25
-3 -16 0 -25 8 -25 7 0 10 -7 6 -16 -5 -14 7 -90 20 -124 4 -8 8 -28 10 -45
10 -97 148 -521 244 -750 92 -219 292 -601 310 -590 5 3 12 0 16 -6 5 -8 3 -9
-6 -4 -23 14 -4 -21 84 -154 681 -1029 1735 -1750 2930 -2005 361 -77 592
-101 991 -101 399 0 630 24 991 101 1194 255 2251 977 2929 2004 422 637 674
1356 757 2150 17 165 17 705 0 870 -83 794 -335 1513 -757 2150 -620 938
-1548 1619 -2627 1929 -95 27 -191 52 -212 57 -35 6 -38 5 -25 -9z m-2219
-1060 c15 -11 31 -16 39 -12 8 5 10 4 5 -3 -4 -7 -1 -12 9 -12 9 0 14 -4 10
-9 -3 -6 15 -19 41 -30 62 -28 70 -26 14 4 -55 29 -50 31 23 6 30 -11 59 -16
63 -13 4 4 4 1 0 -5 -6 -11 -3 -14 19 -13 3 0 19 -7 36 -16 17 -8 33 -13 37
-10 3 3 0 6 -6 6 -7 0 -12 4 -12 9 0 5 10 7 23 4 18 -4 19 -3 7 6 -22 16 4 14
45 -3 26 -11 35 -12 35 -3 0 9 2 9 8 1 4 -6 16 -10 27 -8 11 2 26 -4 33 -13
11 -15 12 -15 12 2 0 10 3 15 7 12 3 -4 11 0 17 9 10 13 12 13 12 -5 0 -11 -4
-18 -7 -15 -4 2 -11 -1 -15 -8 -4 -7 -4 -10 0 -6 5 4 19 3 32 -2 15 -6 24 -6
24 0 0 6 9 6 23 1 12 -5 21 -14 19 -21 -1 -6 2 -9 8 -5 6 3 7 11 4 17 -5 7 -2
8 5 4 7 -5 22 0 34 11 14 12 18 13 9 2 -16 -21 -4 -31 22 -17 15 7 10 -1 -14
-28 -19 -21 -26 -31 -15 -23 27 21 65 35 48 18 -10 -10 -8 -15 10 -24 12 -6
21 -17 20 -23 -2 -7 4 -9 14 -5 11 4 14 3 9 -5 -4 -7 -2 -12 4 -12 6 0 8 -5 4
-12 -4 -7 -3 -8 5 -4 6 4 8 13 5 19 -4 7 4 1 18 -13 14 -14 25 -29 26 -35 4
-30 15 -72 23 -90 7 -14 4 -37 -10 -80 -15 -45 -17 -61 -8 -67 14 -9 19 -246
5 -254 -4 -3 -8 -14 -8 -25 0 -20 -9 -24 -26 -11 -5 4 -1 -1 9 -10 24 -22 36
-22 65 0 23 18 23 19 8 73 l-16 54 5 -45 c4 -32 2 -41 -5 -30 -11 17 -13 112
-3 149 5 20 13 9 54 -70 27 -52 49 -97 49 -101 0 -18 -30 -6 -49 20 l-21 27
11 -27 c7 -17 25 -32 44 -38 43 -14 71 -46 84 -97 7 -24 20 -47 31 -53 26 -14
38 -12 20 3 -8 7 -22 21 -30 32 -11 14 -6 12 20 -7 19 -14 51 -34 70 -43 56
-29 169 -144 207 -213 19 -35 37 -61 40 -58 9 9 -47 101 -98 161 -28 32 -86
85 -128 116 -72 53 -102 85 -130 137 -21 39 5 23 28 -18 22 -39 96 -110 115
-110 5 0 -1 12 -15 28 l-24 27 27 -24 c15 -13 26 -29 25 -35 -1 -6 6 -10 16
-8 10 2 21 -6 26 -20 12 -31 86 -98 109 -98 10 0 -28 43 -101 113 -64 61 -117
115 -117 118 0 4 63 -54 140 -129 77 -74 140 -140 140 -146 -1 -6 -9 -1 -19
12 -18 21 -58 22 -45 1 3 -5 9 -7 14 -4 5 3 15 -2 24 -11 9 -8 20 -13 25 -9 6
3 15 -3 20 -14 14 -25 14 -42 0 -18 -19 33 -27 8 -14 -48 7 -30 9 -57 5 -60
-5 -3 -11 1 -13 7 -4 10 -7 10 -15 0 -7 -10 -17 3 -39 50 -20 43 -53 87 -104
138 -65 66 -82 78 -141 96 l-66 21 -27 -29 c-52 -55 -136 -85 -149 -53 -3 8
-16 15 -29 15 -33 0 -52 23 -38 47 10 17 10 16 11 -4 0 -29 37 -41 54 -17 9
12 15 14 20 6 4 -7 2 -12 -5 -12 -7 0 -10 -3 -6 -6 9 -9 71 24 85 46 10 17 10
26 -3 50 -9 17 -20 30 -26 30 -6 0 -3 -7 5 -16 25 -24 20 -63 -9 -76 -20 -9
-28 -9 -38 2 -10 10 -9 12 6 7 12 -5 17 -1 17 14 0 32 -28 34 -91 3 -53 -25
-64 -27 -92 -17 -29 11 -30 11 -11 -3 24 -17 23 -77 -2 -67 -10 4 -14 -3 -14
-23 0 -22 -3 -25 -10 -14 -12 19 -52 19 -67 0 -9 -11 -12 -12 -13 -2 0 7 -4
11 -9 7 -5 -3 -13 0 -17 7 -5 8 -10 6 -16 -8 -5 -12 -7 5 -4 44 4 65 -8 92
-41 92 -14 0 -15 -12 -11 -82 3 -46 3 -75 1 -65 -6 24 -29 16 -25 -9 2 -15 1
-16 -6 -4 -8 14 -22 65 -37 134 -4 20 -9 26 -14 17 -6 -10 -10 -8 -15 5 -5 14
-9 15 -19 5 -9 -9 -9 -14 2 -20 18 -11 -26 -22 -59 -15 -44 10 -134 48 -153
63 -11 9 -31 21 -45 28 l-27 11 28 1 c17 1 39 -9 55 -24 16 -16 34 -24 46 -21
11 3 33 0 50 -7 17 -7 38 -11 46 -11 8 1 22 2 31 3 11 1 15 9 13 27 -1 15 -7
30 -11 33 -19 13 -73 120 -73 144 0 21 -4 25 -17 21 -10 -4 -2 4 17 16 19 12
49 35 66 52 25 23 39 29 64 26 28 -3 34 1 40 23 7 24 3 28 -62 58 -72 35 -87
36 -69 3 8 -15 6 -23 -9 -37 -11 -10 -20 -15 -20 -11 0 3 -12 -1 -27 -11 -28
-17 -28 -17 -11 2 13 17 14 22 3 32 -10 9 -13 29 -9 65 7 85 10 99 21 106 11
7 -11 35 -121 152 -71 76 -116 139 -109 156 3 8 9 14 14 14 5 0 9 6 9 13 0 13
-73 67 -90 67 -5 0 -12 4 -15 10 -9 14 24 0 57 -23z m4628 -356 c0 -6 -5 -13
-11 -17 -8 -4 -8 -9 1 -18 8 -8 13 -7 20 4 10 17 13 14 151 -153 116 -141 226
-295 234 -329 4 -15 14 -33 23 -40 13 -11 15 -11 7 2 -5 10 -5 12 3 5 6 -5 26
-40 45 -77 30 -57 33 -68 19 -69 -10 -1 -7 -4 8 -8 16 -4 29 -19 39 -44 14
-39 7 -65 -10 -34 -6 9 -17 17 -24 17 -8 0 -15 4 -15 9 0 6 -17 11 -37 13 -28
2 -38 8 -38 20 0 10 -6 23 -14 30 -12 11 -12 10 -5 -2 18 -31 12 -50 -16 -50
-15 0 -37 -9 -50 -20 -15 -13 -27 -17 -33 -11 -5 5 -16 7 -24 4 -12 -5 -12 -7
-1 -15 8 -5 1 -6 -19 -3 -30 5 -134 62 -141 77 -2 4 -10 4 -18 1 -9 -3 -14 1
-14 12 0 9 -4 13 -10 10 -5 -3 -10 -9 -10 -13 0 -13 136 -92 191 -112 30 -10
46 -19 37 -19 -10 -1 -18 -5 -18 -11 0 -5 8 -10 18 -10 14 0 15 -2 2 -10 -16
-10 -36 13 -25 30 3 6 -1 10 -9 10 -8 0 -18 -5 -22 -12 -4 -6 -3 -8 3 -5 6 4
13 -3 16 -14 4 -15 -4 -31 -28 -54 -18 -19 -35 -32 -38 -29 -2 2 -10 -2 -17
-11 -7 -8 -18 -15 -24 -15 -6 0 -39 -26 -73 -58 -35 -32 -63 -54 -64 -48 0 6
-9 -6 -19 -28 -11 -24 -20 -33 -23 -25 -3 8 -6 0 -6 -18 -1 -17 -6 -35 -11
-38 -6 -4 -7 -11 -4 -17 4 -7 2 -8 -4 -4 -16 9 -72 -24 -73 -44 -1 -8 -4 -2
-8 14 -12 57 -60 33 -62 -31 0 -25 -1 -26 -9 -7 -4 12 -16 24 -25 28 -9 3 -13
10 -10 16 3 5 2 10 -4 10 -10 0 -2 103 9 118 2 1 4 7 5 12 1 6 3 12 4 15 0 3
1 7 1 10 0 3 7 19 15 35 8 16 15 31 14 32 -3 5 33 111 44 133 6 11 12 27 14
36 1 8 11 35 22 59 10 24 17 49 14 57 -9 24 6 14 21 -14 l15 -28 0 25 c0 14
-6 36 -14 50 -17 30 -19 44 -4 35 6 -4 10 -1 8 6 -4 32 1 40 21 34 18 -6 19
-2 16 59 -2 36 0 64 4 61 14 -8 18 46 6 77 -9 26 -8 32 8 44 20 14 20 14 0 14
-19 1 -19 1 1 12 19 11 19 11 0 19 -19 7 -18 8 3 8 12 1 22 6 22 11 0 6 -10 8
-24 4 -27 -7 -36 13 -36 87 0 68 10 111 24 100 8 -7 11 4 10 37 -1 26 1 53 4
60 5 14 22 16 22 3z m-2710 -175 c0 -2 -15 -14 -32 -26 -18 -12 -25 -19 -15
-16 15 5 22 -4 18 -26 -2 -14 11 -9 43 15 38 29 56 40 56 34 0 -2 -18 -17 -40
-32 -33 -23 -40 -33 -40 -61 0 -29 4 -34 23 -34 13 0 29 -6 37 -12 8 -7 5 -1
-8 13 -12 14 -19 28 -15 32 3 4 12 -2 19 -12 8 -11 40 -25 81 -34 108 -25 110
-26 72 -24 -34 2 -35 2 -24 -20 8 -15 10 -38 5 -63 -4 -22 -4 -40 1 -40 4 0 6
-9 4 -20 -2 -11 1 -19 7 -17 6 1 12 -7 14 -18 1 -11 10 -24 18 -31 9 -6 12
-15 7 -20 -5 -5 -12 -20 -16 -33 -5 -18 -4 -22 5 -16 9 5 11 4 6 -4 -4 -6 -11
-9 -15 -7 -4 3 -27 -15 -51 -39 -53 -54 -46 -59 12 -8 l43 37 -36 -38 c-19
-20 -42 -38 -50 -40 -17 -2 -57 -25 -45 -26 11 0 -14 -30 -26 -30 -5 0 -6 5
-2 12 4 6 -9 -1 -29 -16 -46 -35 -48 -45 -4 -16 l32 22 -35 -31 c-27 -24 -43
-31 -67 -28 -35 3 -40 -2 -22 -20 8 -8 -1 -18 -33 -37 -25 -14 -54 -26 -65
-26 -28 0 -248 135 -248 152 0 7 -8 12 -16 10 -9 -1 -40 25 -71 60 -72 84 -76
92 -31 67 51 -29 63 -39 85 -74 10 -16 18 -24 18 -17 0 26 -34 78 -86 134 -35
36 -54 65 -54 81 0 13 -3 27 -7 31 -14 14 -2 81 18 98 13 11 15 18 7 21 -7 2
23 12 67 21 48 11 87 26 99 38 10 11 21 17 24 13 4 -3 0 -10 -8 -15 -11 -7 -8
-10 14 -10 24 0 27 3 23 21 -5 17 -3 18 9 8 12 -10 17 -9 27 1 9 9 9 11 0 6
-6 -3 -14 -2 -17 3 -4 5 5 8 19 6 14 -1 25 1 25 6 0 5 6 6 14 3 8 -3 23 4 34
16 11 12 26 20 33 19 20 -4 59 11 59 22 0 6 4 8 9 4 5 -3 13 -1 16 5 4 7 11 8
18 1 8 -6 24 -3 47 9 39 21 40 22 40 16z m859 -646 c39 -75 66 -175 59 -220
l-3 -23 -32 27 c-76 64 -149 217 -168 351 l-7 50 56 -55 c34 -33 71 -83 95
-130z m-1623 139 c40 -25 128 -133 150 -185 9 -21 18 -70 21 -109 5 -65 4 -73
-21 -102 -14 -17 -37 -34 -51 -37 -33 -8 -94 8 -131 35 -27 20 -27 19 3 -9 21
-21 49 -34 88 -42 51 -11 59 -10 92 10 20 12 32 16 26 8 -6 -7 -14 -35 -18
-63 -8 -56 -32 -135 -46 -150 -6 -6 -7 4 -4 25 5 29 4 32 -5 17 -11 -18 -12
-18 -25 0 -12 15 -12 10 0 -29 18 -60 5 -55 -58 23 -27 33 -69 75 -94 93 l-47
34 -44 -42 c-24 -22 -50 -40 -58 -40 -17 2 -6 -57 14 -72 12 -9 12 -15 -2 -45
l-17 -34 19 24 c12 15 25 22 36 18 18 -7 22 -32 6 -42 -5 -3 -15 -16 -21 -28
l-10 -22 20 23 c23 26 41 29 41 6 0 -23 -63 -80 -96 -88 -22 -6 -33 -1 -59 24
-30 29 -32 34 -24 73 4 23 17 63 28 90 11 26 17 47 13 47 -4 0 2 7 12 15 11 8
15 15 10 15 -16 0 -34 -22 -34 -41 0 -9 -7 -19 -15 -23 -8 -3 -12 -12 -9 -20
3 -8 1 -17 -5 -21 -6 -3 -11 -18 -11 -33 0 -15 -5 -34 -10 -42 -7 -11 -9 -9
-8 10 1 46 10 80 19 74 5 -3 9 0 9 5 0 6 -4 11 -8 11 -4 0 -8 9 -8 20 0 13 5
19 13 16 7 -3 13 -1 13 4 0 10 -14 14 -38 11 -8 -1 -11 6 -7 21 8 36 25 151
25 171 0 9 -5 17 -11 17 -15 0 -39 -26 -32 -34 4 -3 -5 -6 -18 -6 -13 0 -33
-7 -43 -15 -11 -8 -26 -15 -34 -15 -22 0 2 25 37 40 26 10 31 21 51 98 38 152
77 219 159 271 41 27 131 58 170 60 7 1 29 -8 47 -20z m564 -508 c0 8 8 1 19
-16 10 -16 30 -40 45 -53 23 -19 27 -20 33 -6 5 13 7 13 14 2 7 -10 9 -10 9 2
0 8 9 0 21 -19 11 -18 23 -31 26 -28 6 7 71 -33 123 -74 39 -32 137 -74 188
-82 19 -3 51 -17 71 -31 20 -14 43 -26 51 -26 7 0 24 -10 37 -22 28 -26 31
-68 6 -68 -17 -1 -17 -1 0 -11 10 -6 28 -9 39 -6 19 5 19 5 1 -15 -18 -20 -17
-20 7 -17 29 5 50 42 52 93 2 44 11 38 43 -25 14 -27 29 -49 33 -49 4 0 27
-17 52 -39 l44 -38 -57 5 c-68 5 -116 -16 -189 -84 -26 -24 -52 -44 -58 -44
-5 0 -10 -8 -10 -17 0 -14 5 -12 27 8 l26 24 -25 -35 c-40 -55 -43 -67 -12
-40 15 14 22 17 15 8 -7 -10 -10 -19 -5 -19 5 -1 14 -2 19 -4 6 -1 16 -3 23
-3 18 -3 15 -30 -5 -41 -10 -5 -15 -12 -13 -15 9 -8 101 75 95 85 -4 5 2 6 11
2 15 -5 8 -15 -37 -55 -47 -43 -58 -48 -85 -43 -23 4 -38 0 -55 -14 -14 -12
-18 -20 -11 -21 7 0 10 -4 7 -10 -3 -5 0 -7 8 -4 11 4 13 -1 10 -20 -3 -15 0
-33 7 -41 15 -18 -3 -79 -33 -113 l-21 -22 24 -23 24 -22 -18 23 c-18 21 -18
23 -1 42 10 11 23 20 28 20 6 0 8 -3 4 -6 -3 -3 12 -33 34 -66 21 -33 41 -77
44 -97 4 -20 8 -47 11 -59 3 -15 1 -21 -6 -17 -14 9 -40 -13 -40 -34 1 -13 3
-13 15 3 8 11 18 17 21 13 3 -3 -3 -18 -14 -32 l-20 -26 -7 31 c-5 23 -2 37
10 50 14 15 15 24 6 47 l-11 28 4 -27 c2 -16 -1 -28 -5 -28 -5 0 -9 8 -9 17 0
9 -8 25 -17 35 -13 14 -14 21 -5 30 7 7 12 17 12 22 0 6 -13 -5 -29 -24 -28
-34 -29 -34 -24 -9 3 19 -2 33 -19 49 -20 21 -21 22 -3 16 14 -5 17 -4 9 4
-12 12 -63 -10 -85 -37 -10 -12 -10 -15 -1 -9 8 5 12 0 12 -18 0 -14 -5 -28
-12 -32 -7 -4 -8 -3 -4 4 4 7 5 12 2 12 -3 0 -22 -26 -43 -57 l-37 -58 -7 55
c-3 31 -12 67 -19 80 -8 14 -13 37 -11 52 4 40 -41 83 -69 68 -13 -7 -19 -18
-16 -28 2 -9 7 -35 10 -57 6 -42 -2 -32 -24 28 -7 21 -16 27 -40 27 -26 0 -33
-5 -42 -30 -5 -17 -18 -35 -28 -40 -31 -17 -34 -11 -6 11 18 14 26 29 24 44
-1 12 4 31 12 41 14 18 14 18 -7 1 -13 -11 -19 -26 -16 -37 3 -12 -5 -28 -21
-44 l-27 -24 10 -100 c6 -54 14 -108 17 -118 6 -16 3 -15 -19 5 -15 14 -24 27
-21 30 3 3 9 -1 14 -9 11 -17 1 109 -11 130 -4 8 -5 -3 -2 -27 4 -29 1 -48
-10 -64 -19 -26 -20 -25 -38 72 -12 66 -7 119 11 119 6 0 10 -33 9 -77 -1
-102 1 -114 11 -108 12 7 2 189 -11 194 -6 2 -3 11 7 22 14 15 20 17 33 7 14
-10 14 -10 0 6 -16 17 -18 17 -43 1 -23 -15 -26 -16 -26 -2 0 20 33 86 43 87
4 0 7 -9 7 -20 0 -11 -3 -20 -8 -20 -4 0 -13 -10 -21 -22 -13 -22 -13 -22 13
1 14 14 26 32 26 41 0 22 28 47 62 55 18 5 34 20 45 43 10 21 24 36 30 35 7
-2 10 4 6 13 -5 13 -8 13 -15 2 -6 -8 -7 -2 -3 19 4 22 -1 50 -18 92 -14 34
-21 61 -16 61 12 0 36 -40 45 -73 9 -39 40 -32 37 8 -2 28 -1 29 12 11 8 -11
15 -15 15 -9 0 5 -9 18 -20 28 -11 10 -20 14 -20 9 0 -5 -4 -4 -8 1 -4 6 -36
23 -72 38 -57 23 -62 24 -36 5 34 -26 71 -105 56 -123 -6 -8 -6 -22 2 -42 6
-16 8 -38 5 -47 -8 -19 -80 -54 -123 -60 -16 -2 -38 -7 -49 -12 -30 -13 -188
-8 -242 7 -51 15 -144 92 -168 140 -20 37 -19 139 0 165 8 10 15 27 15 37 0
11 5 15 11 11 8 -4 8 0 0 15 -7 11 -10 21 -7 21 3 0 0 14 -6 30 -9 27 -6 39
20 93 65 130 201 233 298 225 23 -1 40 0 37 5 -2 4 -23 7 -46 7 -54 0 -149
-45 -204 -97 -47 -44 -57 -45 -41 -4 6 14 16 50 22 80 8 39 16 55 29 57 27 4
45 22 59 60 13 36 23 43 31 20 9 -23 110 -66 168 -71 46 -4 48 -3 16 4 -21 4
-48 18 -60 30 l-22 22 37 -15 c20 -9 39 -12 42 -7 3 5 -7 11 -22 14 -15 3 -45
22 -67 42 -38 34 -38 35 -5 12 19 -14 49 -28 65 -31 17 -3 24 -3 17 0 -6 3 -9
11 -5 17 3 7 3 9 -2 5 -4 -4 -20 -1 -36 8 -34 17 -37 24 -7 16 16 -4 19 -2 13
9 -8 12 -6 12 8 0 14 -11 17 -11 17 0z m1763 -227 l128 5 11 -24 c15 -33 -3
-73 -52 -116 -26 -23 -49 -34 -69 -34 -21 0 -30 4 -27 12 3 7 1 15 -4 18 -6 4
-10 1 -10 -6 0 -7 -6 -4 -14 7 -8 10 -19 20 -25 20 -6 1 -18 2 -27 3 -9 0 -12
6 -8 13 4 6 3 8 -3 5 -20 -13 -168 77 -157 95 3 4 -4 8 -15 8 -11 0 -22 4 -25
8 -2 4 34 2 82 -6 57 -9 131 -11 215 -8z m-2336 -16 c7 -6 15 -3 22 9 15 28
46 4 46 -36 1 -37 -4 -41 -71 -77 -50 -27 -181 -50 -197 -35 -4 5 4 16 19 25
19 13 29 15 37 7 14 -14 69 -14 100 0 29 13 50 49 45 75 -4 21 -35 29 -58 14
-12 -8 -13 -13 -2 -30 15 -24 0 -27 -23 -4 -46 46 28 93 82 52z m-423 -256
c-4 -13 -3 -14 4 -4 7 10 35 -14 114 -95 156 -160 167 -174 161 -206 l-5 -27
-28 39 c-16 21 -33 42 -38 45 -13 8 -54 -169 -48 -207 5 -25 4 -27 -3 -12 -7
13 -10 15 -10 5 0 -8 10 -32 23 -53 22 -35 25 -37 35 -20 18 31 12 5 -13 -60
-37 -95 -39 -114 -16 -120 12 -3 20 -14 20 -26 0 -24 15 -28 24 -6 4 12 11 11
39 -8 35 -23 38 -45 11 -68 -21 -17 -18 -22 38 -69 50 -43 51 -43 44 -16 -4
16 -16 48 -28 72 -11 25 -18 48 -14 51 3 4 6 1 6 -5 0 -7 7 -12 15 -12 8 0 14
6 12 13 -1 8 10 11 36 10 23 -2 36 1 32 7 -3 6 -2 10 4 10 5 0 12 -8 14 -17 3
-10 5 -1 6 19 0 20 5 39 10 42 5 4 7 -3 4 -15 -4 -15 0 -22 16 -26 11 -3 21
-10 22 -17 0 -6 4 -2 9 9 4 11 5 32 3 48 -7 33 -2 34 23 5 10 -12 13 -18 5
-13 -9 5 -12 4 -7 -3 4 -6 13 -9 20 -6 8 3 26 -13 45 -37 17 -24 31 -37 31
-31 0 10 3 10 14 0 16 -15 11 -32 -6 -22 -7 5 -8 2 -3 -5 5 -9 21 -11 49 -7
l42 7 -2 -38 c-3 -36 -3 -37 5 -8 11 37 13 91 4 82 -3 -4 -18 6 -33 21 -37 38
-115 99 -105 81 5 -8 -1 -5 -13 5 -26 23 -30 45 -4 25 15 -13 16 -12 3 3 -7
10 -17 16 -21 13 -18 -11 -80 85 -80 124 0 15 4 19 18 14 15 -6 16 -5 3 13 -8
10 39 -34 103 -98 76 -75 115 -121 110 -129 -4 -7 -3 -10 3 -6 6 4 17 -1 25
-11 13 -15 13 -30 2 -107 -7 -49 -15 -101 -19 -115 -5 -21 -4 -22 5 -8 10 16
13 15 39 -9 26 -24 27 -30 19 -66 -5 -22 -7 -42 -4 -44 10 -10 29 87 35 176
l6 94 98 -102 c107 -112 111 -119 121 -173 10 -55 0 -46 -18 16 -9 29 -23 59
-31 66 -15 13 -21 2 -7 -16 4 -5 -26 24 -65 65 -45 46 -76 71 -82 66 -12 -14
-20 -114 -9 -112 6 1 13 -5 17 -13 5 -8 13 -25 19 -37 18 -35 14 -51 -7 -26
-10 12 -21 19 -25 16 -10 -10 -7 -23 5 -23 13 0 28 -16 53 -55 11 -16 41 -56
68 -88 64 -78 92 -133 90 -182 -1 -30 1 -35 7 -20 5 11 6 24 3 29 -3 5 0 6 7
2 6 -4 9 -19 7 -33 -7 -33 18 -60 39 -43 20 16 30 7 101 -87 l56 -74 25 26
c14 14 30 25 34 25 5 0 8 3 8 8 -3 19 2 33 11 27 14 -9 12 1 -6 37 l-17 32 27
-17 c28 -19 34 -13 12 12 -22 26 -86 120 -86 127 0 4 6 1 13 -5 8 -6 18 -7 22
-3 5 4 5 2 1 -5 -3 -6 -1 -15 5 -19 7 -4 9 -3 5 4 -3 6 -2 13 4 17 13 8 3 25
-13 21 -7 -1 -8 -1 -4 2 5 2 1 12 -9 23 -14 16 -18 16 -31 3 -11 -11 -18 -12
-29 -3 -7 6 -19 8 -26 4 -7 -3 1 5 17 19 17 14 32 25 35 23 3 -1 45 -43 93
-94 l89 -92 -16 -33 c-31 -68 -40 -116 -26 -133 11 -14 11 -16 -1 -13 -11 2
-14 -12 -11 -77 1 -44 7 -93 12 -110 5 -16 19 -83 30 -147 11 -64 29 -138 40
-163 25 -57 25 -55 -2 -55 -19 0 -20 2 -8 10 32 21 -15 9 -149 -36 -75 -26
-170 -62 -211 -80 -41 -19 -66 -27 -56 -19 11 8 59 31 109 52 49 20 91 43 94
50 3 7 16 13 29 13 12 0 27 7 32 16 7 12 14 14 28 6 21 -10 44 -6 44 10 0 6
-11 7 -27 3 -23 -5 -25 -4 -14 9 8 9 19 16 26 16 7 0 18 7 25 15 8 10 9 15 2
15 -6 0 -9 7 -6 15 7 16 -16 11 -104 -24 -75 -30 -78 -25 -6 8 34 16 64 33 68
39 10 16 -11 25 -31 13 -10 -6 -13 -11 -8 -11 10 0 -51 -40 -62 -40 -3 0 4 8
15 18 l21 19 -24 13 c-14 7 -25 17 -25 21 0 16 -38 30 -46 17 -4 -6 -3 -8 4
-4 6 3 13 2 17 -3 10 -17 -39 -2 -52 16 -7 9 -13 13 -13 7 0 -5 -5 -1 -11 10
-9 14 -8 20 1 26 9 6 9 9 0 15 -6 4 -10 17 -9 28 3 39 -1 46 -22 42 -13 -3
-19 0 -16 8 3 7 9 11 14 10 6 -1 8 10 5 24 -3 15 -1 23 4 20 6 -3 10 3 10 14
0 10 -4 19 -8 19 -4 0 -8 5 -8 11 0 5 6 7 13 3 9 -6 9 -5 0 7 -7 8 -10 27 -8
41 3 15 1 30 -5 33 -6 4 -22 29 -36 57 -25 49 -26 50 -63 45 -45 -6 -110 -53
-112 -82 0 -5 -5 -16 -11 -22 -6 -7 -7 -13 -3 -13 4 0 2 -7 -6 -16 -10 -12
-10 -17 0 -23 9 -6 7 -10 -9 -14 -16 -4 -20 -11 -16 -31 3 -15 1 -24 -5 -21
-5 4 -9 -1 -9 -10 0 -9 -4 -14 -9 -10 -6 3 -8 -4 -6 -15 2 -11 -1 -20 -7 -20
-5 0 -7 -7 -4 -16 6 -14 4 -15 -9 -4 -9 7 -15 9 -14 4 4 -22 -2 -35 -15 -32
-8 2 -15 -1 -14 -6 0 -14 -31 -28 -45 -20 -8 5 -7 2 2 -9 12 -15 12 -17 -2
-12 -8 4 -18 1 -23 -6 -5 -8 -3 -10 5 -4 10 5 9 2 0 -13 -7 -12 -17 -18 -21
-16 -11 7 -10 -4 3 -28 6 -11 7 -18 2 -15 -4 3 -8 -41 -8 -98 0 -87 -3 -106
-19 -124 -11 -12 -16 -29 -13 -41 3 -11 1 -18 -4 -14 -13 8 -11 -10 4 -26 7
-9 4 -8 -8 1 -50 40 -63 42 -113 14 -26 -14 -41 -21 -35 -14 10 10 8 18 -9 36
-21 22 -66 33 -53 13 3 -5 0 -7 -8 -5 -7 3 -18 20 -25 38 -6 18 -24 45 -39 61
-28 29 -51 67 -73 116 -6 14 -16 30 -23 35 -12 10 -67 101 -140 236 -34 61
-67 103 -67 83 0 -5 -11 8 -25 29 -14 20 -28 37 -32 37 -3 0 2 -10 11 -22 9
-13 19 -30 22 -38 3 -8 20 -44 39 -80 52 -101 105 -232 98 -243 -3 -6 -12 -2
-20 8 -16 22 -17 12 -2 -16 10 -19 11 -19 23 -4 11 16 15 14 34 -19 12 -21 22
-41 22 -47 0 -5 11 -32 25 -61 31 -64 27 -75 -5 -13 -13 26 -27 48 -31 51 -4
2 -5 14 -2 27 3 16 2 18 -5 8 -7 -9 -12 -10 -16 -2 -4 6 -3 11 3 11 6 0 8 6 5
13 -3 8 -11 14 -20 14 -17 0 -10 -29 16 -67 25 -37 64 -150 51 -150 -4 0 -13
21 -20 48 -6 26 -27 74 -46 107 -19 33 -57 104 -86 158 -29 53 -59 103 -68
110 -12 9 -11 6 2 -13 29 -42 19 -46 -13 -4 -33 44 -39 63 -12 43 16 -13 8 0
-27 41 -2 3 -1 -4 2 -15 8 -23 10 -25 -61 61 l-32 39 22 -39 22 -39 -23 6
c-18 4 -21 2 -16 -11 5 -13 1 -12 -16 4 l-21 19 21 -35 c31 -52 26 -58 -15
-19 l-37 34 22 -31 23 -31 -32 -64 c-35 -73 -106 -150 -197 -215 -62 -45 -63
-45 -47 -69 16 -24 15 -25 -8 -25 -13 0 -33 -7 -44 -15 -22 -17 -44 -19 -44
-5 0 5 6 7 13 5 14 -6 39 42 26 51 -5 3 -18 7 -29 9 -24 5 -27 -20 -4 -29 12
-5 15 -2 10 11 -6 15 -5 16 5 6 10 -10 10 -16 2 -24 -17 -17 -67 19 -52 37 9
12 6 13 -20 8 -25 -5 -31 -3 -31 10 0 13 6 16 23 11 21 -6 21 -5 2 6 -74 45
-278 218 -258 219 6 0 19 -7 27 -16 9 -8 16 -12 16 -8 0 4 8 0 18 -8 29 -25
152 -109 152 -105 0 3 -25 23 -55 46 -31 23 -77 63 -103 88 l-47 46 53 -37
c53 -37 72 -44 72 -26 0 6 -4 10 -9 10 -4 0 -25 14 -46 30 -49 39 -37 39 17 0
l41 -30 44 47 c23 27 43 51 43 54 0 4 15 24 33 44 30 34 33 43 29 84 -3 39 0
50 22 74 16 18 35 27 55 27 16 0 37 3 47 7 13 5 15 3 9 -8 -6 -11 -5 -12 5 -2
12 11 11 15 -1 25 -8 7 -22 22 -29 32 -14 18 -14 19 10 6 14 -7 34 -20 45 -29
19 -15 19 -15 4 4 -8 11 -14 28 -12 37 4 14 8 15 29 6 27 -13 29 -18 12 -38
-7 -8 -3 -6 9 4 l21 18 -38 34 c-21 19 -40 43 -43 54 -7 27 24 35 65 15 29
-14 30 -14 14 0 -18 14 -18 15 -2 15 16 0 16 2 -4 27 -16 20 -18 28 -8 35 7 4
9 8 4 8 -5 0 -1 9 9 20 10 11 15 20 11 20 -3 0 6 18 20 40 32 48 33 95 6 168
l-20 52 36 -28 c66 -52 68 -47 5 12 -35 32 -83 90 -107 129 -41 67 -64 121
-144 332 -17 44 -35 79 -41 78 -6 -2 -8 3 -5 10 3 8 -1 14 -8 15 -7 0 -44 13
-83 28 -67 26 -77 28 -240 27 l-170 -1 85 14 c47 7 93 13 103 14 10 0 15 5 12
10 -3 6 3 10 14 10 12 0 21 -3 21 -7 0 -5 22 -9 49 -10 27 -2 61 -7 76 -13 14
-5 40 -10 56 -10 27 0 30 3 24 23 -5 18 -3 17 10 -5 9 -16 18 -28 20 -28 8 0
-83 187 -117 241 -58 91 -103 175 -84 160 14 -12 19 -12 34 0 42 34 140 82
152 74 5 -3 13 3 19 12 6 10 11 14 11 8 0 -5 5 -3 10 5 6 10 10 11 10 3 0 -7
5 -13 11 -13 7 0 25 -13 41 -30 15 -16 32 -30 36 -30 4 0 18 -10 32 -21 14
-11 19 -17 11 -13 -8 4 -2 -9 13 -29 26 -34 38 -41 59 -38 4 0 7 -3 7 -7 0 -5
7 -9 15 -9 8 0 15 4 15 9 0 11 23 6 33 -7 10 -13 4 36 -6 52 -6 9 -3 11 9 6
15 -5 14 -1 -6 28 -13 19 -42 54 -64 79 -22 25 -10 16 27 -20 43 -41 66 -71
64 -81 -3 -13 2 -16 24 -14 16 1 32 -2 36 -8 4 -6 1 -7 -7 -2 -8 5 -11 4 -7
-2 4 -6 18 -8 31 -6 21 4 25 1 29 -23 3 -22 4 -19 6 12 1 54 25 109 67 161 37
45 44 63 17 42 -16 -12 -17 -12 -5 2 10 13 10 19 -2 28 -13 11 -14 8 -12 -16
2 -27 -7 -55 -26 -77 -5 -6 -16 -20 -24 -31 -9 -11 -7 -3 5 17 11 21 23 61 27
88 6 44 4 55 -16 78 -13 15 11 -8 53 -51 53 -54 74 -83 71 -95z m1968 -129
c-27 -25 -27 -25 -2 -11 55 32 53 30 39 39 -7 4 -10 11 -7 15 7 6 57 -44 58
-58 0 -5 -5 -8 -11 -8 -7 0 0 -9 15 -21 48 -38 69 -101 67 -210 -1 -101 -18
-159 -65 -222 -34 -46 -119 -106 -181 -127 -54 -19 -60 -19 -68 -4 -9 16 -93
112 -125 144 -8 8 -5 1 7 -17 14 -21 23 -52 26 -95 4 -49 3 -56 -5 -33 -5 17
-12 47 -15 67 -3 21 -18 52 -33 70 -15 18 -20 28 -12 23 8 -5 -2 14 -22 41
-31 42 -35 54 -25 66 6 9 19 18 27 21 13 5 13 6 -1 6 -9 1 -21 17 -27 40 -14
47 -15 51 -2 51 5 0 7 -8 3 -17 -6 -16 -4 -16 15 1 26 23 28 15 6 -22 -15 -25
-15 -26 1 -7 9 11 20 19 25 18 4 -1 14 5 22 15 12 15 11 16 -4 3 -11 -8 -18
-9 -18 -3 0 6 8 17 18 24 9 8 37 36 62 63 39 44 37 42 -20 -11 -36 -34 -69
-60 -75 -59 -5 2 -22 6 -37 9 -16 4 -28 10 -28 15 0 13 41 21 60 11 13 -7 32
5 86 52 90 78 94 83 64 68 -23 -12 -24 -12 -11 4 8 9 21 14 29 11 15 -5 130
63 153 92 12 13 14 13 25 -2 11 -14 8 -21 -14 -42z m-1207 -293 c40 -19 97
-28 188 -29 l47 -1 -29 -52 c-28 -49 -55 -153 -35 -135 4 4 10 20 11 35 6 45
63 153 86 161 27 10 34 -4 15 -27 -29 -34 -58 -122 -60 -180 l-1 -58 -109 117
c-59 64 -108 124 -108 133 0 9 -6 16 -13 16 -7 0 -29 17 -48 37 -26 28 -28 33
-9 20 14 -9 43 -26 65 -37z m1040 -353 c-5 -36 -64 -194 -106 -286 -30 -66
-88 -153 -98 -147 -5 3 -8 -2 -7 -12 0 -9 -4 -16 -11 -15 -7 2 -10 -3 -8 -10
3 -6 -4 -23 -15 -37 -16 -21 -21 -22 -29 -10 -5 8 -7 19 -4 25 4 5 2 7 -2 2
-5 -4 -26 9 -47 30 l-38 37 47 43 c25 24 51 43 57 43 6 0 28 17 51 37 39 37
39 37 -4 -9 -24 -26 -49 -44 -54 -41 -6 3 -7 1 -4 -4 4 -6 -11 -22 -33 -37
-22 -14 -40 -31 -40 -37 0 -13 54 25 121 85 25 23 15 11 -23 -26 -43 -42 -64
-68 -56 -72 7 -3 2 -3 -12 0 -25 7 -25 6 -6 -14 l19 -21 28 20 c29 20 40 36
17 23 -7 -4 -1 6 14 21 14 15 36 28 49 29 30 1 62 58 126 221 66 168 70 186
43 210 -23 21 -28 11 -5 -11 14 -14 11 -37 -8 -61 -20 -26 -28 -11 -26 50 0
34 -2 71 -7 82 -4 11 11 0 34 -25 38 -40 42 -49 37 -83z m528 -38 c78 -40 129
-75 237 -162 99 -81 102 -83 74 -69 -16 9 -26 7 -45 -5 -13 -9 -27 -21 -30
-25 -3 -5 -58 41 -122 101 -64 60 -132 121 -151 136 -20 15 -33 31 -30 36 3 5
-1 7 -8 4 -7 -2 -26 7 -43 20 l-29 24 42 -15 c24 -8 71 -28 105 -45z m33
-1072 c6 -2 69 -56 140 -121 156 -144 156 -144 122 -123 -35 21 -44 22 -27 1
8 -10 -9 -4 -41 14 -30 16 -69 33 -87 37 -17 3 -37 13 -44 21 -15 19 -109 19
-154 0 l-34 -14 -48 56 c-26 31 -43 53 -36 49 12 -8 83 21 83 34 0 3 13 12 29
19 16 6 32 19 35 27 4 10 13 13 29 9 12 -4 27 -8 33 -9z m-2430 -124 c20 -38
55 -99 78 -137 22 -38 41 -76 42 -83 1 -8 14 -30 29 -49 15 -19 28 -41 29 -49
1 -7 8 -20 15 -29 7 -9 11 -25 8 -36 -3 -11 -2 -18 3 -15 4 3 10 -4 13 -16 5
-18 3 -18 -11 -7 -9 7 -5 -1 8 -18 14 -18 35 -34 48 -37 22 -4 30 7 12 18 -5
3 -19 20 -31 38 -15 23 -10 19 20 -13 22 -25 41 -50 41 -56 0 -6 33 -39 73
-74 39 -35 80 -76 90 -92 27 -45 20 -43 -17 4 -18 24 -39 42 -45 40 -7 -1 -10
2 -7 7 3 5 -1 14 -8 20 -11 9 -16 9 -21 0 -7 -11 101 -120 114 -116 3 1 26
-14 50 -33 24 -19 47 -34 52 -33 5 2 31 -11 59 -27 55 -33 65 -36 54 -19 -4 8
0 8 15 0 25 -14 28 -23 4 -14 -11 4 -14 3 -9 -5 4 -7 16 -12 26 -12 18 0 120
-51 150 -75 20 -16 50 -26 50 -17 0 4 -34 26 -76 48 -74 38 -90 55 -62 62 9 2
8 0 -2 -7 -8 -6 -10 -11 -4 -11 6 0 17 7 24 15 10 12 9 15 -6 16 -11 0 -14 3
-7 5 15 7 88 79 126 125 19 24 26 41 22 58 -7 26 18 71 39 71 8 0 16 5 18 11
2 6 12 0 23 -13 15 -17 16 -19 3 -9 -25 19 -22 8 4 -15 12 -10 18 -13 14 -6
-17 28 14 8 73 -49 64 -61 103 -84 127 -75 8 3 16 1 18 -3 3 -5 17 -7 32 -5
27 3 47 14 24 14 -10 0 -10 3 0 15 16 19 31 20 24 1 -3 -8 -1 -16 3 -19 5 -3
9 6 8 21 0 15 -5 27 -12 27 -6 0 -15 4 -20 9 -5 5 -3 6 5 2 17 -10 15 2 -6 28
-9 13 -25 22 -35 20 -16 -2 -16 0 2 24 10 15 17 33 15 40 -1 7 0 8 3 2 2 -5 9
-8 14 -4 10 6 -20 64 -33 64 -4 0 -8 5 -8 12 0 6 40 -32 90 -84 79 -84 190
-179 190 -162 0 3 -15 22 -34 43 -44 47 -117 131 -136 155 -14 18 -13 19 2 13
20 -7 33 7 21 26 -19 31 -7 74 22 76 6 1 10 9 10 19 0 18 -21 21 -65 8 -53
-15 8 14 69 33 l61 19 22 -22 c13 -11 31 -32 41 -46 l17 -25 -14 31 c-8 17
-22 36 -30 43 -23 19 -20 27 14 41 16 7 29 15 28 19 -2 21 4 23 15 4 6 -12 28
-50 48 -85 40 -69 89 -202 89 -240 0 -14 11 -35 24 -47 13 -13 27 -34 31 -48
9 -38 16 -22 25 59 l8 73 0 -70 c-1 -93 1 -110 9 -101 5 4 11 49 14 99 7 88 7
88 3 -18 -3 -116 -11 -158 -25 -149 -32 20 78 -189 138 -260 18 -21 30 -43 26
-49 -3 -6 -1 -7 6 -3 6 4 32 -8 60 -28 56 -42 95 -83 46 -50 -53 36 -62 40
-46 21 11 -14 11 -17 0 -17 -8 0 -20 -9 -27 -20 -7 -12 -16 -19 -21 -16 -4 3
-8 -2 -8 -10 0 -8 16 -28 35 -45 40 -36 35 -52 -7 -21 -23 17 -30 18 -34 7 -7
-18 18 -39 35 -29 10 5 10 4 2 -5 -15 -16 -121 9 -170 40 -19 12 -39 17 -46
13 -10 -6 -10 -5 0 8 10 13 10 19 -3 31 -13 14 -13 16 7 20 13 2 -3 4 -36 3
l-58 -1 -22 70 c-12 39 -25 63 -27 55 -5 -13 -8 -13 -22 2 -20 20 -22 32 -4
22 6 -4 1 6 -13 22 -44 51 -58 63 -66 56 -4 -4 -4 -2 -1 4 4 7 -3 14 -18 18
-14 4 -23 11 -20 16 3 6 -1 10 -9 10 -9 0 -16 5 -16 11 0 11 2 10 62 -28 57
-35 34 -3 -28 39 -30 21 -52 33 -48 27 16 -26 -22 -25 -72 1 -45 23 -52 24
-43 9 12 -22 -20 -59 -51 -59 -11 0 -26 -12 -34 -29 -17 -33 -71 -81 -91 -81
-7 0 -15 -6 -18 -12 -3 -10 -10 -10 -28 2 -13 8 -66 35 -118 61 l-95 47 -25
-24 c-74 -71 -155 -133 -198 -149 -46 -17 -63 -30 -63 -48 0 -5 12 1 26 12 15
12 32 21 38 21 6 0 2 -6 -9 -12 -11 -6 -31 -20 -44 -32 -13 -11 -21 -15 -16
-8 5 10 1 13 -18 10 -14 -1 -34 5 -46 16 -20 18 -20 18 -15 -15 8 -49 -9 -89
-35 -82 -12 3 -21 10 -21 15 0 7 -5 6 -14 -1 -10 -8 -24 -7 -56 4 -23 8 -64
15 -91 15 -38 0 -51 5 -64 23 -10 12 -19 17 -21 11 -3 -6 -10 -19 -17 -28 -19
-26 -55 -6 -97 54 -35 48 -59 67 -45 33 24 -56 -1 -168 -46 -209 -20 -18 -22
-18 -51 -1 l-31 18 -34 -33 c-29 -28 -41 -33 -97 -36 -92 -6 -159 37 -206 132
-14 29 -20 35 -20 20 0 -12 -6 -27 -13 -33 -19 -15 -39 3 -72 64 -14 28 -24
42 -21 33 3 -10 1 -20 -4 -23 -6 -4 -10 1 -10 9 0 9 -5 16 -11 16 -5 0 -7 -4
-4 -10 7 -11 3 -12 -19 -4 -9 3 -12 12 -9 22 4 9 4 15 2 12 -2 -3 -13 -15 -24
-28 -19 -23 -19 -23 1 -16 13 4 15 3 6 -4 -19 -13 -61 -2 -73 20 -5 10 -15 15
-21 12 -7 -5 -9 0 -6 14 8 31 1 27 -17 -8 -8 -16 -28 -36 -43 -44 -15 -9 -22
-15 -15 -16 6 0 25 11 41 25 27 22 31 23 43 9 19 -23 20 -64 1 -64 -8 0 -12
-6 -8 -15 3 -8 2 -16 -2 -16 -80 -15 -88 -13 -133 20 l-41 30 43 4 c42 3 41 4
-11 5 -61 2 -101 23 -131 68 -10 16 -19 25 -19 21 0 -4 -10 -3 -22 3 -21 10
-21 9 2 -11 14 -12 24 -26 22 -31 -1 -5 1 -7 6 -4 5 3 20 -6 32 -19 13 -14 19
-25 13 -25 -6 0 -10 -11 -10 -25 0 -20 10 -31 53 -54 34 -18 55 -25 57 -17 3
8 9 7 18 -3 9 -9 10 -11 1 -7 -7 4 -15 1 -18 -8 -3 -9 -11 -13 -17 -9 -5 3 -7
2 -4 -3 8 -14 67 -16 82 -4 8 7 12 5 12 -5 0 -7 -3 -14 -6 -13 -20 2 -31 -3
-26 -13 4 -5 12 -8 18 -6 7 2 21 -3 32 -12 18 -15 19 -15 6 2 -12 15 -12 17 5
11 10 -4 26 -12 34 -19 22 -18 86 -25 99 -12 9 9 11 8 6 -4 -4 -10 3 -19 21
-28 26 -11 26 -11 13 6 -8 9 3 4 23 -11 23 -17 46 -26 57 -23 11 3 28 -3 40
-14 11 -11 28 -19 37 -19 9 0 18 -8 21 -17 4 -17 85 -63 111 -63 7 0 12 -5 12
-11 0 -5 5 -7 12 -3 6 4 8 3 5 -3 -4 -6 3 -19 15 -29 15 -13 19 -14 14 -4 -4
8 -1 6 8 -4 8 -10 13 -23 9 -29 -3 -6 -1 -7 4 -4 6 4 30 -13 54 -38 24 -25 47
-45 50 -45 13 0 109 -96 109 -109 0 -7 5 -9 10 -6 13 8 13 -8 0 -23 -6 -6 -7
-10 -4 -7 9 6 34 -21 34 -37 0 -14 59 -24 61 -11 1 5 3 29 4 54 1 25 8 55 14
65 11 17 12 17 7 1 -3 -10 -2 -15 4 -12 12 7 12 18 14 157 0 71 4 100 9 85 5
-12 7 -71 5 -130 -4 -93 -7 -111 -25 -129 -19 -19 -20 -24 -8 -58 10 -27 11
-62 6 -131 l-8 -94 -3 80 c-2 44 -5 67 -7 50 -5 -47 -25 -105 -34 -100 -4 3
-11 0 -15 -6 -4 -8 -3 -9 4 -5 14 9 15 -3 2 -24 -6 -9 -5 -19 3 -29 10 -12 7
-13 -18 -8 l-30 6 30 -14 c30 -15 29 -15 -20 -9 -108 12 -244 58 -261 86 -6
10 -4 10 8 0 11 -9 18 -10 23 -2 3 5 1 10 -5 10 -6 0 -8 5 -5 10 4 6 1 9 -7 8
-7 -2 -12 4 -10 12 2 8 1 12 -3 8 -13 -12 -34 16 -23 30 7 8 7 12 0 12 -6 0
-13 9 -17 20 -12 38 -133 150 -162 150 -9 0 2 -12 25 -28 23 -15 55 -45 71
-67 26 -34 30 -49 31 -98 0 -54 -1 -57 -19 -47 -35 18 -72 30 -67 21 4 -5 1
-11 -6 -13 -7 -3 11 -17 40 -33 29 -15 50 -30 47 -33 -8 -9 -214 112 -297 175
-90 68 -130 86 -54 26 25 -21 46 -46 46 -55 0 -10 0 -20 0 -23 0 -3 -3 -5 -7
-5 -5 0 -8 4 -8 9 0 16 -13 23 -21 10 -5 -8 -3 -10 6 -4 9 5 11 4 6 -4 -9 -14
-26 -5 -26 15 0 17 -16 19 -26 2 -4 -7 -3 -8 4 -4 18 11 14 1 -6 -17 -18 -16
-18 -15 -14 16 9 63 -8 19 -23 -61 -9 -45 -22 -96 -30 -114 -13 -31 -14 -32
-16 -8 -1 20 -3 18 -9 -10 -6 -28 -8 -30 -9 -10 -1 16 -4 21 -9 13 -11 -17
-44 -6 -65 22 -17 24 -17 26 6 62 29 47 37 76 26 94 -6 10 -9 6 -9 -14 0 -16
-4 -26 -9 -23 -5 3 -14 -8 -21 -24 -7 -17 -16 -30 -20 -30 -5 0 -17 -3 -27 -6
-16 -6 -15 -5 2 9 33 25 11 30 -31 6 l-39 -21 23 24 c27 30 29 48 2 23 -11
-10 -20 -15 -20 -11 0 14 23 51 37 59 7 5 11 13 7 18 -3 5 0 18 7 27 11 14 11
15 -1 5 -20 -19 -41 14 -29 46 5 13 8 25 6 28 -8 7 -57 -116 -57 -143 0 -45
-16 -11 -30 63 -14 73 -21 75 -25 6 -6 -89 -6 -90 -15 -59 -5 16 -8 40 -6 55
2 16 1 18 -2 6 -4 -13 -9 -2 -17 35 -10 51 -12 53 -16 23 -3 -18 -2 -30 3 -27
4 3 7 -10 7 -28 -1 -23 -3 -26 -6 -10 -2 12 -9 22 -14 22 -6 0 -7 9 -4 21 4
13 3 19 -2 16 -5 -3 -16 9 -23 28 -8 19 -20 35 -27 35 -8 0 -12 4 -9 9 6 9
-32 38 -76 58 -18 8 -28 8 -30 1 -2 -6 -10 -2 -18 8 -9 11 -10 15 -2 10 20
-12 14 1 -19 36 -50 54 -85 110 -103 167 -19 59 -17 68 11 53 17 -10 60 -115
55 -135 -2 -5 1 -6 5 -4 5 3 8 20 7 39 -1 22 5 37 18 46 10 7 16 17 13 21 -2
5 3 8 13 8 53 0 60 3 66 35 3 17 12 38 18 46 7 8 13 19 15 26 12 52 21 79 23
66 1 -8 6 -4 10 10 l8 25 1 -24 c2 -54 14 -6 18 74 4 76 2 89 -15 108 -11 12
-25 32 -31 45 l-12 23 -30 -26 c-17 -14 -34 -25 -39 -25 -10 0 -20 26 -19 48
0 11 2 12 6 5 15 -39 96 37 124 116 7 19 15 28 22 24 7 -4 6 1 -2 11 -14 16
-16 14 -28 -27 -15 -53 -83 -134 -102 -122 -24 14 -5 98 49 207 32 67 48 112
44 124 -5 16 -4 16 5 4 6 -8 11 -12 11 -8 0 3 3 14 7 24 4 11 3 15 -4 11 -10
-7 -67 19 -138 63 -16 10 -43 19 -58 19 -15 1 -30 8 -33 16 -4 8 -9 13 -13 10
-4 -2 -8 2 -8 10 0 8 3 13 6 11 17 -9 48 -19 66 -23 11 -1 42 -10 68 -18 36
-12 52 -13 65 -5 15 10 15 11 -3 6 -19 -6 -19 -6 -1 9 10 8 24 24 30 37 8 15
20 22 40 23 22 0 33 8 52 43 13 23 22 42 19 42 -2 0 0 11 5 24 5 13 6 33 3 44
-6 25 -60 52 -106 54 -28 1 -33 4 -29 20 3 13 14 18 42 18 30 0 123 28 98 30
-15 0 77 85 93 86 23 2 32 -22 18 -49 -10 -22 -10 -22 6 -2 10 12 13 29 10 46
-5 21 0 30 20 43 15 10 24 20 21 24 -3 3 -17 -5 -31 -18 l-25 -24 -22 21 c-21
22 -8 27 20 9 18 -11 37 8 26 26 -14 22 -13 37 2 31 8 -3 14 -12 14 -20 0 -8
4 -12 9 -9 5 3 12 -1 15 -10 3 -8 10 -13 16 -9 5 3 20 1 32 -5 18 -9 17 -6 -6
13 -20 18 -25 27 -16 32 8 5 11 4 6 -3 -7 -11 23 -24 62 -26 13 -1 27 -8 32
-16 5 -8 27 -14 55 -15 l47 -1 -40 38 c-40 37 -71 51 -56 26 4 -7 5 -11 1 -8
-3 3 -5 8 -4 12 1 3 -11 18 -26 32 -15 14 -26 26 -23 26 13 0 82 -44 89 -56 4
-8 13 -14 19 -14 6 0 5 7 -3 17 -12 14 -10 14 14 -1 31 -21 35 -28 10 -20 -10
3 -2 -8 17 -25 19 -17 43 -31 53 -31 10 0 16 -4 13 -9 -3 -5 1 -11 9 -14 10
-4 12 -1 8 11 -3 9 -3 14 1 11 4 -4 9 -17 11 -30 3 -13 15 -31 27 -40 l21 -17
-22 -7 c-43 -13 -16 -13 37 0 95 25 236 146 347 297 28 38 51 68 52 68 1 0 18
-30 39 -67z m3867 -475 c-3 -13 -11 -43 -18 -68 -7 -26 -10 -63 -6 -85 l6 -40
18 25 c23 33 22 25 -7 -46 -13 -32 -29 -59 -36 -59 -13 0 -49 -45 -50 -62 0
-7 -5 -13 -11 -13 -5 0 -7 -4 -4 -10 3 -5 -1 -20 -9 -32 -9 -12 -16 -17 -16
-10 0 7 -5 10 -11 6 -6 -3 -9 -17 -6 -30 2 -13 0 -24 -5 -24 -6 0 -7 -11 -4
-25 5 -19 3 -23 -9 -19 -10 4 -15 0 -15 -12 -1 -11 -8 -30 -16 -44 l-15 -25 5
30 c2 17 7 41 10 55 4 14 -3 1 -15 -27 -23 -56 -44 -72 -33 -25 12 49 74 225
85 238 6 7 8 18 4 24 -4 6 1 20 10 30 17 19 50 114 37 106 -4 -2 10 32 31 77
25 52 41 76 46 68 6 -10 10 -9 14 3 10 24 26 19 20 -6z m-7049 -155 c22 -73
35 -101 53 -107 16 -7 86 28 76 38 -3 3 12 6 35 6 33 0 49 -7 85 -38 36 -32
43 -43 40 -67 -6 -41 -24 -50 -46 -22 -9 12 -27 33 -39 47 -12 14 -22 27 -21
30 2 7 -90 -1 -102 -9 -11 -8 -83 -6 -91 2 -3 3 -1 14 4 24 7 12 6 30 -3 55
-7 21 -11 39 -8 41 2 2 -1 16 -6 31 -6 14 -7 26 -3 26 5 0 16 -26 26 -57z
m7653 -129 c4 -33 0 -46 -28 -84 -18 -25 -34 -52 -36 -60 -1 -8 -9 -19 -19
-25 -9 -5 -31 -19 -48 -31 -17 -11 -56 -33 -86 -50 -30 -16 -75 -47 -99 -69
-42 -39 -121 -145 -121 -163 0 -5 -21 -19 -47 -31 -27 -12 -40 -19 -30 -16 66
18 67 18 60 -7 -3 -12 -5 -59 -4 -103 4 -127 -47 -233 -135 -282 -20 -11 -21
-8 -38 86 l-17 98 41 94 c23 52 46 103 52 113 7 13 6 44 -3 98 -19 115 -4 197
57 322 26 54 61 112 76 128 l28 30 108 -6 c153 -10 172 -9 217 6 49 18 64 8
72 -48z m260 -30 c-7 -39 -5 -40 27 -18 23 14 25 14 39 -16 9 -17 11 -27 5
-24 -6 4 -8 -1 -4 -14 7 -22 -2 -72 -13 -70 -3 1 -21 -2 -38 -6 -36 -8 -40
-21 -18 -50 11 -14 21 -17 42 -11 15 3 32 12 36 18 5 7 5 1 2 -13 -9 -33 -56
-92 -86 -107 -13 -7 -20 -13 -15 -13 5 0 3 -7 -4 -15 -11 -13 -10 -14 6 -9 10
4 25 12 32 17 18 14 26 2 26 -37 0 -20 4 -32 11 -30 19 8 8 -73 -13 -94 -19
-19 -21 -19 -25 -4 -3 9 -3 -1 -1 -22 2 -27 0 -35 -7 -25 -13 21 -12 -27 3
-67 10 -29 7 -40 -57 -160 -37 -71 -82 -145 -99 -164 -44 -48 -62 -79 -89
-152 -36 -100 -241 -389 -264 -375 -5 3 -10 -4 -10 -16 -1 -12 -7 -23 -13 -25
-5 -2 -10 -8 -10 -13 0 -6 -9 -20 -20 -32 l-20 -21 5 38 c4 36 3 37 -10 20 -8
-10 -15 -25 -15 -32 0 -22 -31 -82 -42 -82 -6 0 -7 7 -4 16 9 22 -33 55 -56
43 -9 -5 -26 -9 -37 -9 -12 0 -21 -7 -21 -15 0 -8 -5 -15 -11 -15 -5 0 -7 4
-4 10 3 6 -1 7 -9 4 -13 -5 -12 -9 7 -25 l22 -19 -33 11 c-18 6 -46 24 -61 40
-24 24 -28 25 -24 9 3 -11 9 -23 14 -26 5 -3 9 -10 9 -16 0 -6 -12 5 -27 25
-16 20 -37 37 -48 39 -11 2 -21 11 -23 20 -2 12 2 15 20 12 13 -2 17 -2 11 2
-7 3 -13 10 -13 16 0 21 -31 33 -75 30 -45 -4 -45 -4 -45 -42 0 -37 -20 -66
-28 -42 -2 7 -10 5 -21 -6 -10 -9 -26 -23 -37 -30 -10 -7 -13 -10 -5 -6 7 3
35 9 61 11 42 4 50 2 60 -17 9 -17 14 -19 26 -9 10 8 14 8 14 0 0 -6 -4 -11
-10 -11 -5 0 -9 -15 -9 -32 1 -24 3 -27 6 -10 5 27 23 20 23 -10 0 -16 4 -19
24 -14 16 4 30 0 40 -10 20 -19 20 -34 1 -34 -12 0 -12 -5 -5 -26 9 -22 8 -25
-5 -20 -11 4 -15 0 -13 -12 4 -22 35 -45 50 -36 7 5 8 3 3 -6 -6 -9 1 -11 29
-8 20 2 36 2 36 0 0 -12 -165 -172 -177 -172 -7 0 -13 -4 -13 -10 0 -5 -7 -10
-15 -10 -9 0 -29 -16 -46 -35 l-30 -34 -44 42 c-25 22 -40 44 -35 47 14 9 -39
70 -61 70 -10 0 -19 6 -19 14 0 19 -20 25 -47 15 -13 -5 -24 -6 -24 -4 -1 3
-2 8 -3 13 -3 15 -32 49 -62 69 -30 21 -33 27 -37 77 -1 13 -6 24 -12 23 -5
-1 -9 8 -9 21 1 12 -1 22 -5 22 -3 0 -6 19 -6 42 0 35 -3 42 -17 40 -13 -2
-16 3 -12 20 3 13 6 29 6 36 1 6 8 12 17 12 9 0 23 5 31 10 15 11 -7 9 -73 -6
-20 -4 -27 -2 -25 8 2 7 -5 12 -14 12 -10 -1 -18 2 -18 7 0 5 -6 8 -12 7 -7
-2 -12 3 -10 10 1 6 -6 12 -15 13 -11 0 -13 3 -5 6 6 2 10 9 6 14 -3 5 2 9 10
9 9 0 16 7 16 15 0 9 7 18 15 21 8 4 15 10 15 16 0 5 -6 6 -12 2 -9 -5 -9 -3
1 9 7 9 17 15 21 12 5 -3 11 -1 14 4 3 4 -4 8 -17 7 -12 0 -22 4 -23 9 0 6 -4
29 -8 53 -5 29 -4 47 4 57 6 8 9 23 5 34 -3 10 -1 22 5 26 6 3 8 11 4 16 -3 6
5 22 17 36 13 13 23 28 22 31 -2 4 3 7 10 7 6 0 13 6 13 13 1 6 2 17 3 24 0 6
4 8 8 5 3 -4 11 3 17 15 6 12 31 32 56 45 25 13 50 30 56 38 8 11 13 12 23 2
7 -7 12 -7 11 -2 -5 24 2 32 25 30 14 -2 28 2 32 7 4 7 1 8 -7 3 -8 -5 -11 -4
-6 3 4 6 12 9 19 7 29 -10 77 -13 71 -4 -3 5 -9 7 -14 4 -4 -3 -13 2 -19 9 -9
11 -9 14 1 12 7 -1 19 -5 25 -9 23 -14 53 -16 53 -4 0 7 4 6 10 -3 6 -9 5 -20
-3 -29 -10 -12 -9 -13 1 -7 10 6 13 3 12 -10 -4 -33 0 -43 13 -40 6 1 8 1 4
-2 -7 -3 0 -165 9 -212 1 -8 3 -24 3 -35 1 -13 8 -21 19 -21 14 0 17 8 15 40
-1 21 -7 44 -13 50 -11 11 -14 112 -2 119 4 3 8 -18 10 -46 1 -28 6 -55 11
-60 5 -5 6 3 3 18 -2 15 1 38 9 53 17 33 69 103 88 118 11 9 12 12 1 19 -9 5
-11 4 -6 -3 4 -7 1 -12 -7 -12 -18 0 -49 -37 -66 -77 -7 -18 -17 -33 -22 -33
-5 0 0 17 11 38 16 31 24 65 29 125 1 5 6 5 12 2 6 -4 9 2 7 17 -4 32 35 141
40 110 2 -12 8 -20 13 -17 5 4 9 0 9 -7 1 -29 9 -114 12 -129 5 -23 51 -89 62
-89 4 0 1 12 -9 26 -9 14 -15 35 -12 45 3 10 1 17 -4 13 -5 -3 -9 0 -9 6 0 13
25 40 37 40 33 1 112 110 131 182 l9 33 15 -35 c15 -33 15 -34 14 -8 0 16 -3
28 -6 28 -11 0 6 176 19 200 8 14 29 39 46 57 37 36 160 114 168 106 3 -2 29
11 59 31 29 20 63 36 75 36 13 0 23 5 23 10 0 6 4 10 9 10 5 0 12 -18 16 -39
8 -48 -5 -76 -74 -154 -28 -32 -51 -67 -51 -77 0 -10 -4 -22 -10 -25 -5 -3
-10 -14 -10 -23 1 -12 6 -8 16 11 8 15 19 27 25 27 21 0 169 160 169 183 0 12
9 54 20 92 11 39 23 84 26 100 11 51 64 95 90 74 8 -6 14 -4 18 6 3 9 10 13
16 10 5 -3 10 -1 10 5 0 15 -27 24 -47 14 -56 -25 -69 -1 -27 50 32 37 53 47
78 34 14 -8 17 -17 13 -44z m-3081 -454 c-3 -52 -7 -117 -10 -145 -2 -27 -1
-35 1 -17 4 30 6 32 21 20 15 -11 15 -11 5 2 -6 9 -10 38 -7 70 5 81 5 81 26
74 10 -3 25 -1 33 6 14 12 14 13 1 -52 -4 -15 -17 -39 -31 -54 -17 -19 -22
-31 -15 -39 5 -6 8 -14 5 -17 -3 -3 4 -13 15 -23 11 -10 20 -15 20 -11 0 4 6
2 13 -3 6 -6 27 -23 45 -37 33 -27 67 -74 41 -59 -8 5 -10 4 -5 -3 4 -7 17
-12 29 -12 18 0 19 2 7 11 -13 9 -13 10 0 6 8 -2 23 2 32 10 19 17 102 23 121
10 7 -5 -8 -7 -35 -4 -38 4 -54 0 -79 -18 -26 -20 -48 -24 -149 -30 l-118 -7
-7 -57 c-10 -80 -67 -263 -118 -378 -24 -54 -47 -110 -50 -125 -4 -16 -11 -28
-16 -28 -33 0 -204 180 -187 197 3 3 -14 27 -37 53 -48 53 -109 164 -143 260
-17 46 -24 57 -24 38 0 -16 -5 -28 -11 -28 -5 0 -7 5 -3 12 10 16 -10 3 -77
-49 -70 -55 -277 -164 -361 -191 -78 -25 -139 -37 -119 -24 11 8 9 11 -10 14
-19 2 -10 9 44 32 37 16 67 33 67 37 0 8 -24 2 -103 -25 -54 -18 -217 -34
-217 -20 0 12 18 141 25 182 3 18 10 30 16 27 5 -4 9 2 9 13 0 22 47 65 61 56
6 -3 9 2 7 11 -2 10 4 20 12 22 13 4 13 3 0 -6 -13 -9 -13 -11 2 -11 10 0 25
14 33 30 9 17 19 29 23 26 4 -3 9 4 9 15 2 25 22 51 34 43 5 -3 9 0 9 5 0 6 7
11 15 11 8 0 14 5 12 11 -1 6 4 14 12 17 8 3 11 0 7 -7 -8 -13 -4 -14 19 -4
15 5 14 8 -6 20 l-24 14 23 -6 c14 -4 38 1 61 14 22 11 42 17 47 13 4 -4 4 -2
1 4 -3 6 35 51 86 100 75 72 80 76 26 19 -36 -38 -72 -79 -80 -90 -14 -19 -14
-19 13 0 15 11 28 23 28 27 0 4 7 5 15 2 9 -4 23 3 34 15 10 11 21 17 25 14 4
-4 11 -1 16 7 8 13 10 13 10 1 0 -11 6 -9 20 6 12 14 27 19 40 16 11 -3 20 -1
20 3 0 5 10 9 23 10 12 0 66 4 121 7 54 4 103 4 110 -1 18 -14 48 -23 41 -12
-3 6 1 10 10 10 9 0 14 -4 10 -9 -3 -5 0 -13 6 -17 7 -4 9 -3 6 3 -4 6 -1 16
7 22 10 8 17 6 31 -9 14 -15 21 -17 26 -8 5 8 11 9 21 1 7 -6 21 -9 30 -8 9 2
22 -3 29 -11 6 -8 17 -14 24 -14 6 0 22 -9 35 -20 24 -21 56 -28 45 -10 -3 6
1 7 9 4 9 -3 16 -1 16 6 0 6 6 8 13 5 6 -4 4 0 -5 7 -15 13 -15 15 0 26 11 7
12 11 3 9 -7 -1 -15 8 -17 21 -3 14 1 22 11 22 8 0 15 7 15 15 0 8 -6 13 -12
11 -7 -1 -10 -1 -6 1 4 2 5 10 2 17 -3 7 6 17 20 24 20 9 27 7 43 -10 10 -11
17 -22 16 -24 -8 -12 -1 -20 18 -21 26 -2 35 21 20 55 l-11 27 21 -25 c20 -23
21 -33 15 -120z m-573 -474 c56 -118 128 -236 140 -229 6 3 7 1 3 -5 -4 -6 2
-30 14 -54 25 -52 25 -56 0 -33 -11 10 -17 22 -14 26 3 5 1 9 -5 9 -5 0 -22
14 -38 30 -18 19 -38 30 -55 30 -16 0 -28 5 -28 10 0 7 -9 6 -22 -2 -13 -7
-30 -13 -38 -13 -19 0 -51 26 -44 37 6 10 -26 -1 -45 -16 -9 -7 -15 -7 -18 -1
-4 13 -82 10 -95 -3 -13 -13 -38 -4 -38 13 0 20 -19 28 -34 16 -9 -8 -19 -5
-35 13 -13 14 -29 22 -37 19 -8 -3 -14 -2 -14 1 0 8 60 32 101 41 19 4 49 18
67 32 17 13 37 21 42 18 6 -4 9 -2 8 3 -2 5 26 37 62 72 44 42 54 54 30 39
l-35 -23 24 27 c40 44 61 32 104 -57z m-79 -246 c9 -22 16 -45 16 -51 0 -17
69 -199 96 -251 13 -26 23 -51 22 -55 -4 -14 13 -53 23 -53 11 0 12 -37 0 -44
-4 -3 -11 -20 -15 -37 -3 -18 -9 -30 -11 -27 -3 3 1 24 9 48 14 41 13 43 -15
91 -26 45 -79 168 -128 299 -34 92 -23 39 15 -72 19 -56 55 -143 80 -192 44
-88 45 -90 30 -126 -8 -21 -12 -40 -9 -44 4 -3 2 -6 -3 -6 -6 0 -15 5 -21 11
-8 8 -13 8 -17 0 -4 -6 -2 -11 4 -11 8 0 8 -6 0 -20 -6 -11 -15 -18 -21 -15
-14 9 -11 -21 4 -34 8 -6 18 -7 22 -3 5 4 5 -1 2 -10 -3 -9 -11 -35 -17 -56
-10 -39 -34 -60 -45 -41 -8 12 -45 -33 -45 -55 0 -9 4 -16 10 -16 17 0 38 -54
30 -75 -4 -11 -25 -29 -46 -40 -21 -11 -46 -28 -56 -38 -20 -19 -15 -42 7 -33
24 9 53 -36 48 -72 -5 -32 -38 -66 -55 -56 -4 3 -8 -1 -8 -8 0 -9 14 -13 44
-14 25 0 43 3 41 6 -2 4 10 14 28 22 28 13 36 14 51 2 20 -14 36 -10 36 9 0 8
-3 8 -9 -1 -6 -10 -10 -10 -21 3 -11 13 -10 15 2 10 10 -4 17 1 21 12 2 10 8
26 12 35 5 14 2 16 -14 13 -23 -4 -24 -2 -15 32 5 19 11 22 33 17 25 -6 25 -6
6 9 -15 12 -17 19 -9 27 9 9 14 9 19 -1 5 -8 4 -10 -3 -5 -7 4 -12 3 -12 -2 0
-6 7 -13 15 -16 13 -5 15 1 13 31 -2 20 2 38 8 40 16 5 6 -78 -11 -91 -13 -11
-25 -52 -28 -97 -1 -14 -8 -33 -15 -42 -8 -9 -11 -21 -7 -27 4 -6 2 -16 -3
-23 -10 -12 -12 -17 -12 -38 0 -8 -5 -8 -15 1 -13 10 -15 9 -15 -11 1 -13 0
-40 -1 -59 -2 -51 -1 -54 16 -40 21 17 29 -8 15 -44 -7 -21 -7 -32 1 -42 13
-15 4 -48 -10 -40 -5 3 -7 -3 -4 -14 3 -11 10 -23 15 -26 5 -3 4 -11 -2 -19
-6 -8 -9 -40 -7 -77 l3 -63 2 67 c1 37 6 70 12 73 6 4 5 13 -3 25 -19 32 8 50
65 43 28 -3 45 -10 42 -15 -8 -12 127 -1 164 13 13 5 22 5 22 -1 0 -5 14 -7
33 -3 17 3 30 3 27 0 -4 -4 -22 -8 -40 -11 -94 -11 -136 -19 -146 -27 -6 -5
-25 -7 -43 -5 -17 2 -34 -1 -37 -5 -3 -5 -10 -7 -15 -4 -5 4 -9 1 -9 -5 0 -6
-6 -8 -12 -4 -7 4 5 -9 27 -30 30 -27 49 -36 74 -36 26 0 32 -3 24 -11 -8 -8
-20 -9 -42 -1 -19 7 -33 7 -36 1 -4 -5 -10 -7 -14 -4 -5 2 -6 -6 -4 -20 3 -13
-2 -38 -10 -55 -9 -16 -11 -28 -6 -25 5 4 9 -4 8 -17 0 -13 0 -61 1 -108 1
-47 1 -92 1 -101 -1 -9 -24 -39 -52 -67 -28 -28 -48 -56 -44 -61 3 -6 1 -11
-5 -11 -6 0 -9 -4 -5 -10 3 -5 -3 -18 -13 -28 -11 -11 -25 -32 -31 -48 l-11
-29 4 31 c14 95 14 131 0 54 -9 -47 -18 -87 -20 -89 -10 -11 -203 -21 -402
-22 -240 -1 -369 7 -379 24 -3 5 -7 25 -8 44 -1 19 -6 38 -11 41 -12 9 -16 32
-6 32 4 0 6 16 4 35 -3 22 2 45 12 60 15 23 16 69 1 83 -4 5 -9 -20 -7 -39 1
-3 -5 -6 -13 -6 -8 0 -12 4 -9 9 3 4 0 8 -7 8 -8 0 -7 7 4 23 13 20 13 26 1
42 -15 20 -16 135 -1 135 4 0 7 -5 7 -11 0 -5 4 -8 9 -5 5 4 12 1 14 -4 3 -6
4 -7 3 -3 -1 5 -15 34 -30 66 -16 32 -29 69 -30 82 0 13 -3 22 -4 20 -2 -2
-12 4 -23 13 -16 14 -18 26 -13 101 3 47 6 100 7 118 1 17 6 29 11 26 5 -4 6
11 2 33 -9 47 -9 37 -7 103 1 53 1 53 29 47 17 -4 22 -3 14 2 -10 7 -5 13 19
22 25 11 34 11 37 2 2 -7 9 -12 15 -12 5 0 8 3 4 6 -3 3 6 17 21 30 l27 24
-35 -6 c-47 -8 -103 -25 -116 -35 -8 -6 -11 -2 -9 13 1 13 3 42 4 64 1 44 22
61 54 43 10 -6 18 -5 23 2 5 8 3 9 -6 4 -9 -5 -11 -4 -6 4 5 8 12 9 20 2 24
-20 96 14 96 45 0 8 -9 19 -20 26 -11 7 -20 18 -20 25 0 7 -11 13 -24 13 -39
0 -86 21 -86 38 0 10 9 58 19 107 10 50 22 116 26 148 8 68 33 102 71 94 13
-2 24 -1 24 3 0 10 -37 19 -61 15 -19 -4 -26 9 -10 19 5 3 7 15 4 26 -3 11 -1
20 5 20 5 0 9 -7 8 -16 -1 -18 11 -22 85 -31 38 -4 49 -2 60 13 16 21 49 28
49 10 0 -6 6 -4 13 5 13 17 83 34 89 22 3 -4 3 -3 2 4 -2 6 15 15 39 19 50 9
56 11 60 14 6 7 47 6 47 0 0 -4 -10 -15 -22 -25 -23 -16 -23 -16 2 -2 14 8 44
18 67 22 53 8 75 31 49 50 -21 16 -80 0 -69 -18 3 -6 1 -7 -5 -3 -7 4 -35 0
-64 -8 -155 -45 -278 -67 -278 -48 0 4 -21 8 -47 10 -26 1 -53 8 -60 15 -25
25 3 36 121 47 155 15 282 48 387 100 102 51 194 113 203 135 3 9 -13 1 -35
-19 -44 -37 -171 -107 -237 -130 -37 -13 -39 -13 -35 3 2 10 30 30 61 45 78
38 153 86 147 96 -5 8 30 42 55 54 8 4 -1 -6 -20 -23 -19 -17 -31 -31 -26 -31
11 0 79 50 84 62 9 20 31 4 46 -32z m-1739 -952 c3 -18 12 -60 20 -93 7 -33
21 -96 30 -139 8 -44 22 -93 30 -110 7 -17 16 -47 19 -66 11 -80 30 -140 43
-140 5 0 9 -17 10 -37 1 -24 -1 -33 -6 -24 -5 7 -10 9 -12 3 -2 -6 -10 -3 -19
6 -13 14 -12 15 4 9 13 -5 17 -3 13 6 -51 132 -108 324 -121 402 -9 55 -23
125 -31 155 -8 30 -15 56 -15 58 0 1 6 2 14 2 8 0 17 -14 21 -32z m192 -132
c-3 -7 -1 -18 4 -23 5 -5 11 -33 12 -60 2 -28 9 -58 16 -67 11 -13 10 -15 -9
-11 -16 3 -19 1 -12 -8 5 -7 13 -30 17 -52 4 -22 12 -46 18 -54 10 -12 9 -13
-3 -7 -9 4 -8 1 3 -7 20 -17 22 -27 4 -27 -7 0 -23 -9 -35 -20 -27 -25 -36
-25 -29 0 3 11 1 18 -3 15 -5 -3 -10 0 -12 7 -3 7 5 18 16 23 26 13 29 60 4
60 -23 0 -30 9 -34 45 -3 25 0 30 17 30 23 0 42 39 27 57 -5 6 -19 13 -31 15
-27 4 -39 58 -13 58 9 0 21 9 28 20 15 23 23 26 15 6z m18 -385 c-4 -23 -2
-48 4 -58 8 -14 10 -15 11 -3 0 13 1 13 10 0 8 -13 10 -13 10 2 0 11 7 16 20
15 17 -1 20 -7 16 -29 -2 -15 0 -28 4 -28 5 0 7 -9 5 -20 -2 -11 0 -18 6 -15
8 5 11 -7 8 -31 0 -3 8 -12 18 -20 11 -8 13 -13 6 -14 -7 0 -13 -7 -13 -15 0
-7 -8 -19 -17 -25 -16 -10 -16 -11 2 -5 11 3 16 3 13 -1 -4 -4 -2 -16 4 -28
l11 -21 -24 20 c-13 11 -4 -1 21 -25 55 -55 103 -117 106 -137 2 -10 -6 -8
-24 8 l-26 24 22 -29 c12 -16 22 -35 22 -43 0 -8 5 -11 10 -8 6 3 10 -3 10
-15 0 -14 4 -19 13 -14 9 6 9 5 -1 -8 -10 -13 -9 -18 5 -29 16 -13 17 -12 4 4
-7 9 -9 17 -5 17 17 0 35 -38 22 -46 -7 -5 -8 -3 -3 6 5 8 4 11 -2 7 -6 -4 -8
-18 -5 -32 4 -24 2 -25 -29 -20 -19 2 -70 9 -113 15 -44 6 -82 12 -84 15 -2 2
-12 73 -21 157 -12 116 -22 165 -40 201 -33 68 -30 206 5 245 26 28 27 27 19
-17z"/>
<path d="M5703 6894 c-17 -45 42 -245 107 -358 37 -64 53 -82 90 -101 80 -40
108 -91 66 -119 -14 -9 -32 -16 -39 -16 -10 0 -13 -8 -9 -25 2 -14 11 -25 18
-25 19 0 18 -19 -1 -26 -8 -4 -15 -14 -14 -23 0 -10 2 -11 6 -3 7 17 20 15 43
-8 l20 -20 0 28 c0 38 9 46 32 25 23 -20 24 -6 1 19 -9 11 -11 18 -5 18 7 0
12 6 12 13 0 16 29 77 37 77 3 0 2 -7 -1 -16 -3 -8 -2 -12 4 -9 18 11 10 -12
-10 -30 -11 -10 -20 -28 -20 -39 1 -17 3 -15 14 9 7 17 20 36 29 44 20 16 23
36 5 25 -7 -4 -9 -3 -5 1 17 19 37 12 43 -13 3 -15 12 -47 18 -72 14 -51 14
-60 2 -79 -6 -9 1 -8 22 5 25 14 34 16 44 6 10 -10 10 -17 1 -31 -11 -18 -10
-18 18 -8 18 7 27 17 24 25 -3 8 -5 18 -5 23 0 6 -4 8 -9 4 -5 -3 -12 -1 -16
4 -4 7 -15 7 -31 1 -14 -6 -26 -10 -28 -10 -1 0 -2 15 -1 34 0 19 -2 33 -6 30
-4 -2 -11 15 -15 38 -11 64 -11 78 -2 72 4 -3 9 -20 9 -37 l1 -32 7 30 c4 17
6 38 5 48 -2 9 2 17 7 17 6 0 9 -12 8 -27 -3 -41 0 -63 9 -63 4 0 6 19 4 41
-3 29 -1 40 7 35 6 -4 11 -26 12 -49 0 -32 2 -37 8 -22 5 11 7 23 4 27 -2 4 5
5 16 3 14 -2 18 1 14 15 -3 10 0 21 6 24 6 4 11 11 11 17 0 13 -34 11 -48 -3
-9 -9 -12 -8 -12 8 0 16 -2 17 -10 4 -7 -11 -10 -11 -10 -2 0 7 -4 11 -9 8 -8
-5 -101 49 -101 59 0 3 20 -6 43 -20 31 -18 57 -25 88 -23 39 1 40 2 9 5 -67
7 -82 14 -130 64 -31 33 -52 65 -60 95 -19 68 -78 152 -151 215 -103 89 -165
122 -176 93z"/>
<path d="M5339 5353 c-22 -26 -101 -72 -116 -66 -21 8 -3 24 20 18 16 -5 18
-4 8 3 -8 6 -9 12 -3 16 6 3 12 2 14 -3 1 -5 12 -3 23 6 20 15 20 15 -2 8 -19
-5 -22 -3 -16 12 5 13 -2 11 -28 -10 -19 -16 -56 -42 -82 -58 -29 -18 -45 -34
-41 -41 4 -6 3 -8 -3 -5 -13 8 -65 -31 -58 -43 3 -4 -3 -14 -13 -21 -15 -13
-16 -12 -3 4 7 9 10 17 5 17 -11 -1 -49 -29 -50 -38 -5 -24 -17 -52 -23 -52
-19 0 -18 14 2 31 36 30 10 22 -36 -12 -43 -31 -50 -45 -35 -66 6 -8 -14 -26
-63 -58 -39 -25 -85 -59 -102 -75 -17 -16 -35 -26 -41 -23 -11 7 85 98 152
145 24 16 41 32 38 35 -6 6 -101 -67 -164 -126 -38 -35 -42 -42 -32 -61 11
-21 12 -20 54 17 49 45 92 75 202 146 138 88 434 315 413 317 -4 0 -13 -7 -20
-17z"/>
<path d="M4910 1200 c0 -5 12 -10 28 -10 15 0 34 -5 42 -11 11 -8 7 -9 -17 -5
-18 3 -33 2 -33 -3 0 -4 32 -13 70 -20 39 -6 90 -18 113 -27 141 -53 224 -64
211 -29 -7 16 -114 61 -167 69 -21 3 -47 11 -57 16 -26 14 -34 12 -21 -4 8
-10 -12 -7 -71 10 -93 27 -98 28 -98 14z"/>
<path d="M3530 9546 c-129 -48 -265 -105 -217 -91 15 4 17 1 11 -18 -4 -12
-17 -33 -30 -46 -19 -18 -22 -27 -13 -37 9 -11 8 -18 0 -28 -9 -11 -9 -16 0
-22 8 -4 9 -3 5 4 -4 7 -1 12 9 12 9 0 13 -5 10 -10 -9 -15 14 -40 36 -40 10
0 21 -5 25 -12 4 -7 3 -8 -4 -4 -8 5 -10 2 -6 -8 3 -9 7 -16 8 -16 1 0 28 32
61 70 33 39 80 111 105 162 l45 92 65 22 c36 12 58 23 50 23 -8 0 -80 -24
-160 -53z"/>
<path d="M5166 9561 c-4 -5 3 -12 14 -16 20 -6 29 -35 10 -35 -14 0 -190 -183
-190 -197 0 -30 88 -2 150 48 47 38 97 115 102 154 2 25 0 30 -19 29 -12 0
-21 4 -20 10 3 14 -39 20 -47 7z"/>
<path d="M4233 9527 c-51 -12 -56 -27 -10 -27 43 0 61 -13 55 -38 -5 -17 -1
-21 26 -24 23 -2 32 -8 34 -26 4 -26 46 -74 81 -92 39 -20 50 19 15 60 -7 8
-19 35 -28 60 -12 34 -12 46 -3 52 7 5 1 8 -16 8 -16 0 -40 9 -54 20 -28 22
-37 23 -100 7z"/>
<path d="M5065 9494 c-22 -8 -67 -17 -100 -20 -33 -2 -77 -9 -99 -15 -21 -6
-50 -7 -65 -3 -14 4 -66 8 -116 8 -51 1 -100 8 -114 15 -19 10 -23 11 -19 0 2
-7 30 -27 63 -45 50 -28 65 -32 109 -27 39 3 60 0 91 -16 l40 -21 16 21 c11
15 28 22 60 23 24 1 61 3 81 4 26 2 47 11 72 36 33 31 47 57 29 55 -5 0 -26
-7 -48 -15z"/>
<path d="M6894 8523 c-5 -17 -2 -30 8 -37 38 -29 21 -76 -27 -76 -13 0 -27 -5
-31 -11 -5 -8 8 -9 43 -4 l50 6 -5 -31 c-4 -25 2 -36 33 -65 46 -44 78 -47 69
-7 -4 15 -10 34 -15 43 -7 13 3 62 18 87 5 10 72 18 91 11 18 -7 23 -4 28 16
3 14 10 22 15 19 5 -3 6 3 2 12 -6 15 -7 15 -21 -2 -13 -18 -14 -18 -7 5 6 21
5 23 -11 16 -11 -4 -29 -10 -41 -12 -13 -3 -23 -9 -23 -13 0 -9 -53 0 -60 10
-5 7 -98 60 -105 60 -3 0 -8 -12 -11 -27z"/>
</g>
</svg>
